<?xml version="1.0" encoding="utf-8"?>
<COLLADA xmlns="http://www.collada.org/2005/11/COLLADASchema" version="1.4.1">
  <asset>
    <contributor>
      <author>Andrew_Ostler</author>
      <authoring_tool>Maya 8.0 | ColladaMaya v2.04 | FCollada v1.14</authoring_tool>
      <comments>Collada Maya Export Options: bakeTransforms=1;exportPolygonMeshes=1;bakeLighting=0;isSampling=0;
curveConstrainSampling=0;exportCameraAsLookat=0;
exportLights=1;exportCameras=1;exportJointsAndSkin=1;
exportAnimations=1;exportTriangles=0;exportInvisibleNodes=0;
exportNormals=1;exportTexCoords=1;exportVertexColors=1;exportTangents=0;
exportTexTangents=0;exportConstraints=1;exportPhysics=1;exportXRefs=1;
dereferenceXRefs=0;cameraXFov=0;cameraYFov=1</comments>
      <source_data>file:///D:/dev/Private/ATGTools/Examples/R%26D/edge/skincyl_atg.ma</source_data>
    </contributor>
    <contributor>
      <author>cstratton</author>
      <authoring_tool>FCProcessMeshes sample for FCollada v3.05</authoring_tool>
      <source_data>skin_cyl_customcompress.dae</source_data>
    </contributor>
    <created>2007-02-14T13:23:12Z</created>
    <modified>2008-01-19T00:50:04Z</modified>
    <unit meter="1" name="meter"/>
    <up_axis>Y_UP</up_axis>
  </asset>
  <library_physics_scenes>
    <physics_scene id="MayaNativePhysicsScene" name="MayaNativePhysicsScene">
      <technique_common>
        <gravity>0 -980 0</gravity>
        <time_step>0.083</time_step>
      </technique_common>
    </physics_scene>
  </library_physics_scenes>
  <library_lights>
    <light id="pointLightShape1-lib" name="pointLightShape1">
      <technique_common>
        <point>
          <color>1 1 1</color>
          <constant_attenuation>1</constant_attenuation>
          <linear_attenuation>0</linear_attenuation>
          <quadratic_attenuation>0</quadratic_attenuation>
        </point>
      </technique_common>
      <extra>
        <technique profile="FCOLLADA">
          <target_default_dist>240.000000</target_default_dist>
          <intensity>1</intensity>
        </technique>
      </extra>
    </light>
  </library_lights>
  <library_materials>
    <material id="ATGMaterial1" name="ATGMaterial1">
      <instance_effect url="#ATGMaterial1-fx"/>
      <extra>
        <technique profile="MAYA">
          <dynamic_attributes>
            <AtgMaterialsIleDiffuseTexture short_name="AtgMaterialsIleDiffuseTexture" type="string"/>
            <AtgMaterialsIleAlphaTexture short_name="AtgMaterialsIleAlphaTexture" type="string"/>
            <AtgMaterialsIleDiffuseAlphaUvSet short_name="AtgMaterialsIleDiffuseAlphaUvSet" type="string"/>
            <AtgMaterialsIleLightMapUvSet short_name="AtgMaterialsIleLightMapUvSet" type="string"/>
            <Mat_texture_diffuse short_name="Mat_texture_diffuse" type="string">D:/dev/ATGSamples/Assets/Common/Textures/rockwall.dds</Mat_texture_diffuse>
            <Mat_uv_diffuseUv short_name="Mat_uv_diffuseUv" type="string">map1</Mat_uv_diffuseUv>
            <Mat_texture_normalMap short_name="Mat_texture_normalMap" type="string">D:/dev/ATGSamples/Assets/Common/Textures/rockwall_normal.dds</Mat_texture_normalMap>
          </dynamic_attributes>
        </technique>
      </extra>
    </material>
  </library_materials>
  <library_effects>
    <effect id="ATGMaterial1-fx" name="ATGMaterial1-fx">
      <profile_COMMON>
        <technique sid="common">
          <constant>
            <emission>
              <color>0 0 0 0</color>
            </emission>
            <reflective>
              <color>1 1 1 1</color>
            </reflective>
            <reflectivity>
              <float>1</float>
            </reflectivity>
            <transparent opaque="RGB_ZERO">
              <color>0 0 0 1</color>
            </transparent>
            <transparency>
              <float>1</float>
            </transparency>
            <index_of_refraction>
              <float>0</float>
            </index_of_refraction>
          </constant>
          <extra>
            <technique profile="FCOLLADA"/>
          </extra>
        </technique>
      </profile_COMMON>
    </effect>
  </library_effects>
  <library_geometries>
    <geometry id="pCylinderShape1-lib" name="pCylinderShape1">
      <mesh>
        <source id="pCylinderShape1-lib-positions" name="position">
          <float_array id="pCylinderShape1-lib-positions-array" count="1506">0.144117 -1 -0.046826 0.122593 -1 -0.089069 0.089069 -1 -0.122593 0.046826 -1 -0.144117 0 -1 -0.151533 -0.046826 -1 -0.144117 -0.089069 -1 -0.122593 -0.122593 -1 -0.089069 -0.144117 -1 -0.046826 -0.151533 -1 0 -0.144117 -1 0.046826 -0.122593 -1 0.089069 -0.089069 -1 0.122593 -0.046826 -1 0.144117 0 -1 0.151533 0.046826 -1 0.144117 0.089069 -1 0.122593 0.122593 -1 0.089069 0.144117 -1 0.046826 0.151533 -1 0 0.288234 -1 -0.093653 0.245186 -1 -0.178138 0.178138 -1 -0.245186 0.093653 -1 -0.288234 0 -1 -0.303067 -0.093653 -1 -0.288234 -0.178138 -1 -0.245186 -0.245186 -1 -0.178138 -0.288234 -1 -0.093653 -0.303067 -1 0 -0.288234 -1 0.093653 -0.245186 -1 0.178138 -0.178138 -1 0.245186 -0.093653 -1 0.288234 0 -1 0.303067 0.093653 -1 0.288234 0.178138 -1 0.245186 0.245186 -1 0.178138 0.288234 -1 0.093653 0.303067 -1 0 0.432351 -1 -0.140479 0.367779 -1 -0.267207 0.267207 -1 -0.367779 0.140479 -1 -0.43235 0 -1 -0.4546 -0.140479 -1 -0.43235 -0.267207 -1 -0.367779 -0.367779 -1 -0.267207 -0.43235 -1 -0.140479 -0.4546 -1 0 -0.43235 -1 0.140479 -0.367779 -1 0.267207 -0.267207 -1 0.367779 -0.140479 -1 0.43235 0 -1 0.4546 0.140479 -1 0.43235 0.267207 -1 0.367779 0.367779 -1 0.267207 0.43235 -1 0.140479 0.4546 -1 0 0.432351 -0.9 -0.140479 0.367779 -0.9 -0.267207 0.267207 -0.9 -0.367779 0.140479 -0.9 -0.43235 0 -0.9 -0.4546 -0.140479 -0.9 -0.43235 -0.267207 -0.9 -0.367779 -0.367779 -0.9 -0.267207 -0.43235 -0.9 -0.140479 -0.4546 -0.9 0 -0.43235 -0.9 0.140479 -0.367779 -0.9 0.267207 -0.267207 -0.9 0.367779 -0.140479 -0.9 0.43235 0 -0.9 0.4546 0.140479 -0.9 0.43235 0.267207 -0.9 0.367779 0.367779 -0.9 0.267207 0.43235 -0.9 0.140479 0.4546 -0.9 0 0.432351 -0.8 -0.140479 0.367779 -0.8 -0.267207 0.267207 -0.8 -0.367779 0.140479 -0.8 -0.43235 0 -0.8 -0.4546 -0.140479 -0.8 -0.43235 -0.267207 -0.8 -0.367779 -0.367779 -0.8 -0.267207 -0.43235 -0.8 -0.140479 -0.4546 -0.8 0 -0.43235 -0.8 0.140479 -0.367779 -0.8 0.267207 -0.267207 -0.8 0.367779 -0.140479 -0.8 0.43235 0 -0.8 0.4546 0.140479 -0.8 0.43235 0.267207 -0.8 0.367779 0.367779 -0.8 0.267207 0.43235 -0.8 0.140479 0.4546 -0.8 0 0.432351 -0.7 -0.140479 0.367779 -0.7 -0.267207 0.267207 -0.7 -0.367779 0.140479 -0.7 -0.43235 0 -0.7 -0.4546 -0.140479 -0.7 -0.43235 -0.267207 -0.7 -0.367779 -0.367779 -0.7 -0.267207 -0.43235 -0.7 -0.140479 -0.4546 -0.7 0 -0.43235 -0.7 0.140479 -0.367779 -0.7 0.267207 -0.267207 -0.7 0.367779 -0.140479 -0.7 0.43235 0 -0.7 0.4546 0.140479 -0.7 0.43235 0.267207 -0.7 0.367779 0.367779 -0.7 0.267207 0.43235 -0.7 0.140479 0.4546 -0.7 0 0.432351 -0.6 -0.140479 0.367779 -0.6 -0.267207 0.267207 -0.6 -0.367779 0.140479 -0.6 -0.43235 0 -0.6 -0.4546 -0.140479 -0.6 -0.43235 -0.267207 -0.6 -0.367779 -0.367779 -0.6 -0.267207 -0.43235 -0.6 -0.140479 -0.4546 -0.6 0 -0.43235 -0.6 0.140479 -0.367779 -0.6 0.267207 -0.267207 -0.6 0.367779 -0.140479 -0.6 0.43235 0 -0.6 0.4546 0.140479 -0.6 0.43235 0.267207 -0.6 0.367779 0.367779 -0.6 0.267207 0.43235 -0.6 0.140479 0.4546 -0.6 0 0.432351 -0.5 -0.140479 0.367779 -0.5 -0.267207 0.267207 -0.5 -0.367779 0.140479 -0.5 -0.43235 0 -0.5 -0.4546 -0.140479 -0.5 -0.43235 -0.267207 -0.5 -0.367779 -0.367779 -0.5 -0.267207 -0.43235 -0.5 -0.140479 -0.4546 -0.5 0 -0.43235 -0.5 0.140479 -0.367779 -0.5 0.267207 -0.267207 -0.5 0.367779 -0.140479 -0.5 0.43235 0 -0.5 0.4546 0.140479 -0.5 0.43235 0.267207 -0.5 0.367779 0.367779 -0.5 0.267207 0.43235 -0.5 0.140479 0.4546 -0.5 0 0.432351 -0.4 -0.140479 0.367779 -0.4 -0.267207 0.267207 -0.4 -0.367779 0.140479 -0.4 -0.43235 0 -0.4 -0.4546 -0.140479 -0.4 -0.43235 -0.267207 -0.4 -0.367779 -0.367779 -0.4 -0.267207 -0.43235 -0.4 -0.140479 -0.4546 -0.4 0 -0.43235 -0.4 0.140479 -0.367779 -0.4 0.267207 -0.267207 -0.4 0.367779 -0.140479 -0.4 0.43235 0 -0.4 0.4546 0.140479 -0.4 0.43235 0.267207 -0.4 0.367779 0.367779 -0.4 0.267207 0.43235 -0.4 0.140479 0.4546 -0.4 0 0.432351 -0.3 -0.140479 0.367779 -0.3 -0.267207 0.267207 -0.3 -0.367779 0.140479 -0.3 -0.43235 0 -0.3 -0.4546 -0.140479 -0.3 -0.43235 -0.267207 -0.3 -0.367779 -0.367779 -0.3 -0.267207 -0.43235 -0.3 -0.140479 -0.4546 -0.3 0 -0.43235 -0.3 0.140479 -0.367779 -0.3 0.267207 -0.267207 -0.3 0.367779 -0.140479 -0.3 0.43235 0 -0.3 0.4546 0.140479 -0.3 0.43235 0.267207 -0.3 0.367779 0.367779 -0.3 0.267207 0.43235 -0.3 0.140479 0.4546 -0.3 0 0.432351 -0.2 -0.140479 0.367779 -0.2 -0.267207 0.267207 -0.2 -0.367779 0.140479 -0.2 -0.43235 0 -0.2 -0.4546 -0.140479 -0.2 -0.43235 -0.267207 -0.2 -0.367779 -0.367779 -0.2 -0.267207 -0.43235 -0.2 -0.140479 -0.4546 -0.2 0 -0.43235 -0.2 0.140479 -0.367779 -0.2 0.267207 -0.267207 -0.2 0.367779 -0.140479 -0.2 0.43235 0 -0.2 0.4546 0.140479 -0.2 0.43235 0.267207 -0.2 0.367779 0.367779 -0.2 0.267207 0.43235 -0.2 0.140479 0.4546 -0.2 0 0.432351 -0.1 -0.140479 0.367779 -0.1 -0.267207 0.267207 -0.1 -0.367779 0.140479 -0.1 -0.43235 0 -0.1 -0.4546 -0.140479 -0.1 -0.43235 -0.267207 -0.1 -0.367779 -0.367779 -0.1 -0.267207 -0.43235 -0.1 -0.140479 -0.4546 -0.1 0 -0.43235 -0.1 0.140479 -0.367779 -0.1 0.267207 -0.267207 -0.1 0.367779 -0.140479 -0.1 0.43235 0 -0.1 0.4546 0.140479 -0.1 0.43235 0.267207 -0.1 0.367779 0.367779 -0.1 0.267207 0.43235 -0.1 0.140479 0.4546 -0.1 0 0.432351 0 -0.140479 0.367779 0 -0.267207 0.267207 0 -0.367779 0.140479 0 -0.43235 0 0 -0.4546 -0.140479 0 -0.43235 -0.267207 0 -0.367779 -0.367779 0 -0.267207 -0.43235 0 -0.140479 -0.4546 0 0 -0.43235 0 0.140479 -0.367779 0 0.267207 -0.267207 0 0.367779 -0.140479 0 0.43235 0 0 0.4546 0.140479 0 0.43235 0.267207 0 0.367779 0.367779 0 0.267207 0.43235 0 0.140479 0.4546 0 0 0.432351 0.1 -0.140479 0.367779 0.1 -0.267207 0.267207 0.1 -0.367779 0.140479 0.1 -0.43235 0 0.1 -0.4546 -0.140479 0.1 -0.43235 -0.267207 0.1 -0.367779 -0.367779 0.1 -0.267207 -0.43235 0.1 -0.140479 -0.4546 0.1 0 -0.43235 0.1 0.140479 -0.367779 0.1 0.267207 -0.267207 0.1 0.367779 -0.140479 0.1 0.43235 0 0.1 0.4546 0.140479 0.1 0.43235 0.267207 0.1 0.367779 0.367779 0.1 0.267207 0.43235 0.1 0.140479 0.4546 0.1 0 0.432351 0.2 -0.140479 0.367779 0.2 -0.267207 0.267207 0.2 -0.367779 0.140479 0.2 -0.43235 0 0.2 -0.4546 -0.140479 0.2 -0.43235 -0.267207 0.2 -0.367779 -0.367779 0.2 -0.267207 -0.43235 0.2 -0.140479 -0.4546 0.2 0 -0.43235 0.2 0.140479 -0.367779 0.2 0.267207 -0.267207 0.2 0.367779 -0.140479 0.2 0.43235 0 0.2 0.4546 0.140479 0.2 0.43235 0.267207 0.2 0.367779 0.367779 0.2 0.267207 0.43235 0.2 0.140479 0.4546 0.2 0 0.432351 0.3 -0.140479 0.367779 0.3 -0.267207 0.267207 0.3 -0.367779 0.140479 0.3 -0.43235 0 0.3 -0.4546 -0.140479 0.3 -0.43235 -0.267207 0.3 -0.367779 -0.367779 0.3 -0.267207 -0.43235 0.3 -0.140479 -0.4546 0.3 0 -0.43235 0.3 0.140479 -0.367779 0.3 0.267207 -0.267207 0.3 0.367779 -0.140479 0.3 0.43235 0 0.3 0.4546 0.140479 0.3 0.43235 0.267207 0.3 0.367779 0.367779 0.3 0.267207 0.43235 0.3 0.140479 0.4546 0.3 0 0.432351 0.4 -0.140479 0.367779 0.4 -0.267207 0.267207 0.4 -0.367779 0.140479 0.4 -0.43235 0 0.4 -0.4546 -0.140479 0.4 -0.43235 -0.267207 0.4 -0.367779 -0.367779 0.4 -0.267207 -0.43235 0.4 -0.140479 -0.4546 0.4 0 -0.43235 0.4 0.140479 -0.367779 0.4 0.267207 -0.267207 0.4 0.367779 -0.140479 0.4 0.43235 0 0.4 0.4546 0.140479 0.4 0.43235 0.267207 0.4 0.367779 0.367779 0.4 0.267207 0.43235 0.4 0.140479 0.4546 0.4 0 0.432351 0.5 -0.140479 0.367779 0.5 -0.267207 0.267207 0.5 -0.367779 0.140479 0.5 -0.43235 0 0.5 -0.4546 -0.140479 0.5 -0.43235 -0.267207 0.5 -0.367779 -0.367779 0.5 -0.267207 -0.43235 0.5 -0.140479 -0.4546 0.5 0 -0.43235 0.5 0.140479 -0.367779 0.5 0.267207 -0.267207 0.5 0.367779 -0.140479 0.5 0.43235 0 0.5 0.4546 0.140479 0.5 0.43235 0.267207 0.5 0.367779 0.367779 0.5 0.267207 0.43235 0.5 0.140479 0.4546 0.5 0 0.432351 0.6 -0.140479 0.367779 0.6 -0.267207 0.267207 0.6 -0.367779 0.140479 0.6 -0.43235 0 0.6 -0.4546 -0.140479 0.6 -0.43235 -0.267207 0.6 -0.367779 -0.367779 0.6 -0.267207 -0.43235 0.6 -0.140479 -0.4546 0.6 0 -0.43235 0.6 0.140479 -0.367779 0.6 0.267207 -0.267207 0.6 0.367779 -0.140479 0.6 0.43235 0 0.6 0.4546 0.140479 0.6 0.43235 0.267207 0.6 0.367779 0.367779 0.6 0.267207 0.43235 0.6 0.140479 0.4546 0.6 0 0.432351 0.7 -0.140479 0.367779 0.7 -0.267207 0.267207 0.7 -0.367779 0.140479 0.7 -0.43235 0 0.7 -0.4546 -0.140479 0.7 -0.43235 -0.267207 0.7 -0.367779 -0.367779 0.7 -0.267207 -0.43235 0.7 -0.140479 -0.4546 0.7 0 -0.43235 0.7 0.140479 -0.367779 0.7 0.267207 -0.267207 0.7 0.367779 -0.140479 0.7 0.43235 0 0.7 0.4546 0.140479 0.7 0.43235 0.267207 0.7 0.367779 0.367779 0.7 0.267207 0.43235 0.7 0.140479 0.4546 0.7 0 0.432351 0.8 -0.140479 0.367779 0.8 -0.267207 0.267207 0.8 -0.367779 0.140479 0.8 -0.43235 0 0.8 -0.4546 -0.140479 0.8 -0.43235 -0.267207 0.8 -0.367779 -0.367779 0.8 -0.267207 -0.43235 0.8 -0.140479 -0.4546 0.8 0 -0.43235 0.8 0.140479 -0.367779 0.8 0.267207 -0.267207 0.8 0.367779 -0.140479 0.8 0.43235 0 0.8 0.4546 0.140479 0.8 0.43235 0.267207 0.8 0.367779 0.367779 0.8 0.267207 0.43235 0.8 0.140479 0.4546 0.8 0 0.432351 0.9 -0.140479 0.367779 0.9 -0.267207 0.267207 0.9 -0.367779 0.140479 0.9 -0.43235 0 0.9 -0.4546 -0.140479 0.9 -0.43235 -0.267207 0.9 -0.367779 -0.367779 0.9 -0.267207 -0.43235 0.9 -0.140479 -0.4546 0.9 0 -0.43235 0.9 0.140479 -0.367779 0.9 0.267207 -0.267207 0.9 0.367779 -0.140479 0.9 0.43235 0 0.9 0.4546 0.140479 0.9 0.43235 0.267207 0.9 0.367779 0.367779 0.9 0.267207 0.43235 0.9 0.140479 0.4546 0.9 0 0.432351 1 -0.140479 0.367779 1 -0.267207 0.267207 1 -0.367779 0.140479 1 -0.43235 0 1 -0.4546 -0.140479 1 -0.43235 -0.267207 1 -0.367779 -0.367779 1 -0.267207 -0.43235 1 -0.140479 -0.4546 1 0 -0.43235 1 0.140479 -0.367779 1 0.267207 -0.267207 1 0.367779 -0.140479 1 0.43235 0 1 0.4546 0.140479 1 0.43235 0.267207 1 0.367779 0.367779 1 0.267207 0.43235 1 0.140479 0.4546 1 0 0.288234 0.980156 -0.093653 0.245186 0.980156 -0.178138 0.178138 0.980156 -0.245186 0.093653 0.980156 -0.288234 0 0.980156 -0.303067 -0.093653 0.980156 -0.288234 -0.178138 0.980156 -0.245186 -0.245186 0.980156 -0.178138 -0.288234 0.980156 -0.093653 -0.303067 0.980156 0 -0.288234 0.980156 0.093653 -0.245186 0.980156 0.178138 -0.178138 0.980156 0.245186 -0.093653 0.980156 0.288234 0 0.980156 0.303067 0.093653 0.980156 0.288234 0.178138 0.980156 0.245186 0.245186 0.980156 0.178138 0.288234 0.980156 0.093653 0.303067 0.980156 0 0.144117 0.919859 -0.046826 0.122593 0.919859 -0.089069 0.089069 0.919859 -0.122593 0.046826 0.919859 -0.144117 0 0.919859 -0.151533 -0.046826 0.919859 -0.144117 -0.089069 0.919859 -0.122593 -0.122593 0.919859 -0.089069 -0.144117 0.919859 -0.046826 -0.151533 0.919859 0 -0.144117 0.919859 0.046826 -0.122593 0.919859 0.089069 -0.089069 0.919859 0.122593 -0.046826 0.919859 0.144117 0 0.919859 0.151533 0.046826 0.919859 0.144117 0.089069 0.919859 0.122593 0.122593 0.919859 0.089069 0.144117 0.919859 0.046826 0.151533 0.919859 0 0 -1 0 0 0.887471 0</float_array>
          <technique_common>
            <accessor source="#pCylinderShape1-lib-positions-array" count="502" stride="3">
              <param name="X" type="float"/>
              <param name="Y" type="float"/>
              <param name="Z" type="float"/>
            </accessor>
          </technique_common>
        </source>
        <source id="pCylinderShape1-lib-normals" name="normal">
          <float_array id="pCylinderShape1-lib-normals-array" count="1626">0 -1 0 0 -1 0 0 -1 0 0 -1 0 0 -1 0 0 -1 0 0 -1 0 0 -1 0 0 -1 0 0 -1 0 0 -1 0 0 -1 0 0 -1 0 0 -1 0 0 -1 0 0 -1 0 0 -1 0 0 -1 0 0 -1 0 0 -1 0 0 -1 0 0 -1 0 0 -1 0 0 -1 0 0 -1 0 0 -1 0 0 -1 0.000001 0 -1 0 0 -1 0 0 -1 0 0 -1 0 0 -1 0 0 -1 0 0 -1 0 0 -1 -0.000001 0 -1 0 0 -1 -0.000001 0 -1 0 0 -1 0 0 -1 0 0 -1 0 0 -1 0 0 -1 0 0 -1 0 0 -1 0 0 -1 0 0 -1 0 0 -1 0 0 -1 0 0 -1 0 0 -1 0 0 -1 0 0 -1 0 0 -1 0 0 -1 0 0 -1 0 0 -1 0 0 -1 0 0 -1 0 0 -1 0 0.951057 0 -0.309016 0.809017 0 -0.587785 0.809017 0 -0.587785 0.951057 0 -0.309016 0.587785 0 -0.809017 0.587785 0 -0.809017 0.309017 0 -0.951057 0.309017 0 -0.951057 0 0 -1 0 0 -1 -0.309017 0 -0.951056 -0.309017 0 -0.951057 -0.587785 0 -0.809017 -0.587786 0 -0.809017 -0.809017 0 -0.587785 -0.809017 0 -0.587785 -0.951057 0 -0.309017 -0.951057 0 -0.309017 -1 0 0 -1 0 0 -0.951056 0 0.309017 -0.951056 0 0.309017 -0.809017 0 0.587785 -0.809017 0 0.587785 -0.587785 0 0.809017 -0.587785 0 0.809017 -0.309017 0 0.951057 -0.309017 0 0.951057 0 0 1 0 0 1 0.309017 0 0.951057 0.309017 0 0.951057 0.587785 0 0.809017 0.587785 0 0.809017 0.809017 0 0.587785 0.809017 0 0.587785 0.951056 0 0.309017 0.951057 0 0.309017 1 0 0.000001 1 0 0.000001 0.809017 0 -0.587785 0.951057 0 -0.309016 0.587785 0 -0.809017 0.309017 0 -0.951057 0 0 -1 -0.309017 0 -0.951056 -0.587786 0 -0.809017 -0.809017 0 -0.587785 -0.951057 0 -0.309017 -1 0 0 -0.951056 0 0.309017 -0.809017 0 0.587785 -0.587785 0 0.809017 -0.309017 0 0.951057 0 0 1 0.309017 0 0.951057 0.587785 0 0.809017 0.809017 0 0.587785 0.951057 0 0.309017 1 0 0.000001 0.809017 0 -0.587785 0.951057 0 -0.309016 0.587785 0 -0.809017 0.309017 0 -0.951057 0 0 -1 -0.309017 0 -0.951056 -0.587785 0 -0.809017 -0.809017 0 -0.587785 -0.951057 0 -0.309017 -1 0 0 -0.951056 0 0.309017 -0.809017 0 0.587785 -0.587785 0 0.809017 -0.309017 0 0.951057 0 0 1 0.309017 0 0.951057 0.587785 0 0.809017 0.809017 0 0.587785 0.951057 0 0.309017 1 0 0.000001 0.809017 0 -0.587785 0.951057 0 -0.309016 0.587785 0 -0.809017 0.309017 0 -0.951057 0 0 -1 -0.309017 0 -0.951056 -0.587785 0 -0.809017 -0.809017 0 -0.587785 -0.951057 0 -0.309017 -1 0 0 -0.951056 0 0.309017 -0.809017 0 0.587785 -0.587785 0 0.809017 -0.309017 0 0.951057 0 0 1 0.309017 0 0.951056 0.587785 0 0.809017 0.809017 0 0.587785 0.951057 0 0.309017 1 0 0.000001 0.809017 0 -0.587785 0.951057 0 -0.309016 0.587785 0 -0.809017 0.309017 0 -0.951057 0 0 -1 -0.309017 0 -0.951056 -0.587785 0 -0.809017 -0.809017 0 -0.587785 -0.951057 0 -0.309017 -1 0 0 -0.951056 0 0.309017 -0.809017 0 0.587785 -0.587785 0 0.809017 -0.309017 0 0.951057 0 0 1 0.309017 0 0.951056 0.587785 0 0.809017 0.809017 0 0.587785 0.951057 0 0.309017 1 0 0.000001 0.809017 0 -0.587785 0.951057 0 -0.309016 0.587785 0 -0.809017 0.309017 0 -0.951057 0 0 -1 -0.309017 0 -0.951056 -0.587786 0 -0.809017 -0.809017 0 -0.587785 -0.951057 0 -0.309017 -1 0 0 -0.951056 0 0.309017 -0.809017 0 0.587785 -0.587785 0 0.809017 -0.309017 0 0.951057 0 0 1 0.309017 0 0.951057 0.587785 0 0.809017 0.809017 0 0.587785 0.951057 0 0.309017 1 0 0.000001 0.809017 0 -0.587785 0.951057 0 -0.309016 0.587785 0 -0.809017 0.309017 0 -0.951057 0 0 -1 -0.309017 0 -0.951056 -0.587785 0 -0.809017 -0.809017 0 -0.587785 -0.951057 0 -0.309017 -1 0 0 -0.951056 0 0.309017 -0.809017 0 0.587785 -0.587785 0 0.809017 -0.309017 0 0.951057 0 0 1 0.309017 0 0.951057 0.587785 0 0.809017 0.809017 0 0.587785 0.951057 0 0.309017 1 0 0.000001 0.809017 0 -0.587785 0.951057 0 -0.309016 0.587785 0 -0.809017 0.309017 0 -0.951057 0 0 -1 -0.309017 0 -0.951056 -0.587785 0 -0.809017 -0.809017 0 -0.587785 -0.951057 0 -0.309017 -1 0 0 -0.951056 0 0.309017 -0.809017 0 0.587785 -0.587785 0 0.809017 -0.309017 0 0.951057 0 0 1 0.309017 0 0.951057 0.587785 0 0.809017 0.809017 0 0.587785 0.951057 0 0.309017 1 0 0.000001 0.809017 0 -0.587785 0.951057 0 -0.309016 0.587785 0 -0.809017 0.309017 0 -0.951057 0 0 -1 -0.309017 0 -0.951056 -0.587785 0 -0.809017 -0.809017 0 -0.587785 -0.951057 0 -0.309017 -1 0 0 -0.951056 0 0.309017 -0.809017 0 0.587785 -0.587785 0 0.809017 -0.309017 0 0.951057 0 0 1 0.309017 0 0.951056 0.587785 0 0.809017 0.809017 0 0.587785 0.951057 0 0.309017 1 0 0.000001 0.809017 0 -0.587785 0.951057 0 -0.309016 0.587785 0 -0.809017 0.309017 0 -0.951057 0 0 -1 -0.309017 0 -0.951056 -0.587785 0 -0.809017 -0.809017 0 -0.587785 -0.951057 0 -0.309017 -1 0 0 -0.951056 0 0.309017 -0.809017 0 0.587785 -0.587785 0 0.809017 -0.309017 0 0.951057 0 0 1 0.309017 0 0.951056 0.587785 0 0.809017 0.809017 0 0.587785 0.951057 0 0.309017 1 0 0.000001 0.809017 0 -0.587785 0.951057 0 -0.309016 0.587785 0 -0.809017 0.309017 0 -0.951057 0 0 -1 -0.309017 0 -0.951056 -0.587785 0 -0.809017 -0.809017 0 -0.587785 -0.951057 0 -0.309017 -1 0 0 -0.951056 0 0.309017 -0.809017 0 0.587785 -0.587785 0 0.809017 -0.309017 0 0.951057 0 0 1 0.309017 0 0.951056 0.587785 0 0.809017 0.809017 0 0.587785 0.951057 0 0.309017 1 0 0.000001 0.809017 0 -0.587785 0.951057 0 -0.309016 0.587785 0 -0.809017 0.309017 0 -0.951057 0 0 -1 -0.309017 0 -0.951056 -0.587785 0 -0.809017 -0.809017 0 -0.587785 -0.951057 0 -0.309017 -1 0 0 -0.951056 0 0.309017 -0.809017 0 0.587785 -0.587785 0 0.809017 -0.309017 0 0.951057 0 0 1 0.309017 0 0.951056 0.587785 0 0.809017 0.809017 0 0.587785 0.951057 0 0.309017 1 0 0.000001 0.809017 0 -0.587785 0.951057 0 -0.309016 0.587785 0 -0.809017 0.309017 0 -0.951057 0 0 -1 -0.309017 0 -0.951056 -0.587785 0 -0.809017 -0.809017 0 -0.587785 -0.951057 0 -0.309017 -1 0 0 -0.951056 0 0.309017 -0.809017 0 0.587785 -0.587785 0 0.809017 -0.309017 0 0.951057 0 0 1 0.309017 0 0.951057 0.587785 0 0.809017 0.809017 0 0.587785 0.951057 0 0.309017 1 0 0.000001 0.809017 0 -0.587785 0.951057 0 -0.309016 0.587785 0 -0.809017 0.309017 0 -0.951057 0 0 -1 -0.309017 0 -0.951056 -0.587786 0 -0.809017 -0.809017 0 -0.587785 -0.951057 0 -0.309017 -1 0 0 -0.951056 0 0.309017 -0.809017 0 0.587785 -0.587785 0 0.809017 -0.309017 0 0.951057 0 0 1 0.309017 0 0.951057 0.587785 0 0.809017 0.809017 0 0.587785 0.951057 0 0.309017 1 0 0.000001 0.809017 0 -0.587785 0.951057 0 -0.309016 0.587785 0 -0.809017 0.309017 0 -0.951057 0 0 -1 -0.309017 0 -0.951056 -0.587785 0 -0.809017 -0.809017 0 -0.587785 -0.951057 0 -0.309017 -1 0 0 -0.951056 0 0.309017 -0.809017 0 0.587785 -0.587785 0 0.809017 -0.309017 0 0.951057 0 0 1 0.309017 0 0.951056 0.587785 0 0.809017 0.809017 0 0.587785 0.951057 0 0.309017 1 0 0.000001 0.809017 0 -0.587785 0.951057 0 -0.309016 0.587785 0 -0.809017 0.309017 0 -0.951057 0 0 -1 -0.309017 0 -0.951056 -0.587785 0 -0.809017 -0.809017 0 -0.587785 -0.951057 0 -0.309017 -1 0 0 -0.951056 0 0.309017 -0.809017 0 0.587785 -0.587785 0 0.809017 -0.309017 0 0.951057 0 0 1 0.309017 0 0.951056 0.587785 0 0.809017 0.809017 0 0.587785 0.951057 0 0.309017 1 0 0.000001 0.809017 0 -0.587785 0.951057 0 -0.309016 0.587785 0 -0.809017 0.309017 0 -0.951057 0 0 -1 -0.309017 0 -0.951056 -0.587785 0 -0.809017 -0.809017 0 -0.587785 -0.951057 0 -0.309017 -1 0 0 -0.951056 0 0.309017 -0.809017 0 0.587785 -0.587785 0 0.809017 -0.309017 0 0.951057 0 0 1 0.309017 0 0.951057 0.587785 0 0.809017 0.809017 0 0.587785 0.951057 0 0.309017 1 0 0.000001 0.809017 0 -0.587785 0.951057 0 -0.309016 0.587785 0 -0.809017 0.309017 0 -0.951057 0 0 -1 -0.309017 0 -0.951056 -0.587786 0 -0.809017 -0.809017 0 -0.587785 -0.951057 0 -0.309017 -1 0 0 -0.951056 0 0.309017 -0.809017 0 0.587785 -0.587785 0 0.809017 -0.309017 0 0.951057 0 0 1 0.309017 0 0.951057 0.587785 0 0.809017 0.809017 0 0.587785 0.951057 0 0.309017 1 0 0.000001 0.809017 0 -0.587785 0.951057 0 -0.309016 0.587785 0 -0.809017 0.309017 0 -0.951057 0 0 -1 -0.309017 0 -0.951057 -0.587786 0 -0.809017 -0.809017 0 -0.587785 -0.951057 0 -0.309017 -1 0 0 -0.951056 0 0.309017 -0.809017 0 0.587785 -0.587785 0 0.809017 -0.309017 0 0.951057 0 0 1 0.309017 0 0.951057 0.587785 0 0.809017 0.809017 0 0.587785 0.951057 0 0.309017 1 0 0.000001 0.809017 0 -0.587785 0.951057 0 -0.309016 0.587785 0 -0.809017 0.309017 0 -0.951057 0 0 -1 -0.309017 0 -0.951056 -0.587785 0 -0.809017 -0.809017 0 -0.587785 -0.951057 0 -0.309017 -1 0 0 -0.951056 0 0.309017 -0.809017 0 0.587785 -0.587785 0 0.809017 -0.309017 0 0.951057 0 0 1 0.309017 0 0.951057 0.587785 0 0.809017 0.809017 0 0.587785 0.951056 0 0.309017 1 0 0.000001 -0.123491 0.991534 0.040124 -0.105048 0.991534 0.076322 -0.203574 0.967823 0.147905 -0.239316 0.967823 0.077758 -0.076322 0.991534 0.105049 -0.147905 0.967823 0.203574 -0.040125 0.991534 0.123492 -0.077758 0.967823 0.239316 0 0.991534 0.129846 0 0.967823 0.251632 0.040125 0.991534 0.123491 0.077758 0.967823 0.239316 0.076322 0.991534 0.105048 0.147906 0.967823 0.203574 0.105048 0.991534 0.076322 0.203575 0.967823 0.147906 0.123492 0.991534 0.040125 0.239316 0.967823 0.077758 0.129847 0.991534 0 0.251632 0.967823 0 0.123492 0.991534 -0.040125 0.239316 0.967823 -0.077758 0.105048 0.991534 -0.076322 0.203574 0.967823 -0.147905 0.076322 0.991534 -0.105048 0.147905 0.967823 -0.203574 0.040125 0.991534 -0.123492 0.077758 0.967823 -0.239316 0 0.991534 -0.129847 0 0.967823 -0.251632 -0.040125 0.991534 -0.123492 -0.077758 0.967823 -0.239316 -0.076322 0.991534 -0.105048 -0.147905 0.967823 -0.203574 -0.105048 0.991534 -0.076322 -0.203574 0.967823 -0.147906 -0.123492 0.991534 -0.040125 -0.239316 0.967823 -0.077759 -0.129847 0.991534 0 -0.251632 0.967823 0 -0.234893 0.956922 0.17066 -0.276133 0.956922 0.089722 -0.17066 0.956923 0.234892 -0.089721 0.956923 0.276133 0 0.956923 0.290343 0.089721 0.956923 0.276133 0.17066 0.956923 0.234893 0.234893 0.956922 0.17066 0.276133 0.956923 0.089721 0.290343 0.956922 0 0.276133 0.956923 -0.089721 0.234893 0.956923 -0.170659 0.17066 0.956923 -0.234893 0.089721 0.956923 -0.276133 0 0.956922 -0.290343 -0.089721 0.956922 -0.276133 -0.17066 0.956922 -0.234893 -0.234893 0.956923 -0.17066 -0.276133 0.956922 -0.089721 -0.290344 0.956922 0 0 -1 0 0 1 0</float_array>
          <technique_common>
            <accessor source="#pCylinderShape1-lib-normals-array" count="542" stride="3">
              <param name="X" type="float"/>
              <param name="Y" type="float"/>
              <param name="Z" type="float"/>
            </accessor>
          </technique_common>
        </source>
        <source id="pCylinderShape1-lib-map1" name="map1">
          <float_array id="pCylinderShape1-lib-map1-array" count="1126">0.658509 -0.551503 0.634836 -0.597964 0.597964 -0.634836 0.551503 -0.658509 0.5 -0.666667 0.448497 -0.658509 0.402036 -0.634836 0.365164 -0.597964 0.341491 -0.551503 0.333333 -0.5 0.341491 -0.448497 0.365164 -0.402036 0.402036 -0.365164 0.448497 -0.341491 0.5 -0.333333 0.551503 -0.341491 0.597964 -0.365164 0.634836 -0.402036 0.658509 -0.448497 0.666667 -0.5 0.817019 -0.603006 0.769673 -0.695929 0.695929 -0.769673 0.603006 -0.817019 0.5 -0.833333 0.396994 -0.817019 0.304071 -0.769672 0.230328 -0.695928 0.182981 -0.603006 0.166667 -0.5 0.182981 -0.396994 0.230328 -0.304072 0.304072 -0.230328 0.396994 -0.182981 0.5 -0.166667 0.603006 -0.182981 0.695928 -0.230328 0.769672 -0.304072 0.817019 -0.396994 0.833333 -0.5 0.975529 -0.654509 0.904509 -0.793893 0.793893 -0.904509 0.654509 -0.975528 0.5 -1 0.345491 -0.975528 0.206107 -0.904509 0.095491 -0.793893 0.024472 -0.654509 0 -0.5 0.024472 -0.345491 0.095491 -0.206107 0.206107 -0.095491 0.345491 -0.024472 0.5 0 0.654508 -0.024472 0.793893 -0.095491 0.904508 -0.206107 0.975528 -0.345491 1 -0.5 0 0 0.05 0 0.1 0 0.15 0 0.2 0 0.25 0 0.3 0 0.35 0 0.4 0 0.45 0 0.5 0 0.55 0 0.6 0 0.65 0 0.7 0 0.75 0 0.8 0 0.85 0 0.9 0 0.95 0 1 0 0 0.05 0.05 0.05 0.1 0.05 0.15 0.05 0.2 0.05 0.25 0.05 0.3 0.05 0.35 0.05 0.4 0.05 0.45 0.05 0.5 0.05 0.55 0.05 0.6 0.05 0.65 0.05 0.7 0.05 0.75 0.05 0.8 0.05 0.85 0.05 0.9 0.05 0.95 0.05 1 0.05 0 0.1 0.05 0.1 0.1 0.1 0.15 0.1 0.2 0.1 0.25 0.1 0.3 0.1 0.35 0.1 0.4 0.1 0.45 0.1 0.5 0.1 0.55 0.1 0.6 0.1 0.65 0.1 0.7 0.1 0.75 0.1 0.8 0.1 0.85 0.1 0.9 0.1 0.95 0.1 1 0.1 0 0.15 0.05 0.15 0.1 0.15 0.15 0.15 0.2 0.15 0.25 0.15 0.3 0.15 0.35 0.15 0.4 0.15 0.45 0.15 0.5 0.15 0.55 0.15 0.6 0.15 0.65 0.15 0.7 0.15 0.75 0.15 0.8 0.15 0.85 0.15 0.9 0.15 0.95 0.15 1 0.15 0 0.2 0.05 0.2 0.1 0.2 0.15 0.2 0.2 0.2 0.25 0.2 0.3 0.2 0.35 0.2 0.4 0.2 0.45 0.2 0.5 0.2 0.55 0.2 0.6 0.2 0.65 0.2 0.7 0.2 0.75 0.2 0.8 0.2 0.85 0.2 0.9 0.2 0.95 0.2 1 0.2 0 0.25 0.05 0.25 0.1 0.25 0.15 0.25 0.2 0.25 0.25 0.25 0.3 0.25 0.35 0.25 0.4 0.25 0.45 0.25 0.5 0.25 0.55 0.25 0.6 0.25 0.65 0.25 0.7 0.25 0.75 0.25 0.8 0.25 0.85 0.25 0.9 0.25 0.95 0.25 1 0.25 0 0.3 0.05 0.3 0.1 0.3 0.15 0.3 0.2 0.3 0.25 0.3 0.3 0.3 0.35 0.3 0.4 0.3 0.45 0.3 0.5 0.3 0.55 0.3 0.6 0.3 0.65 0.3 0.7 0.3 0.75 0.3 0.8 0.3 0.85 0.3 0.9 0.3 0.95 0.3 1 0.3 0 0.35 0.05 0.35 0.1 0.35 0.15 0.35 0.2 0.35 0.25 0.35 0.3 0.35 0.35 0.35 0.4 0.35 0.45 0.35 0.5 0.35 0.55 0.35 0.6 0.35 0.65 0.35 0.7 0.35 0.75 0.35 0.8 0.35 0.85 0.35 0.9 0.35 0.95 0.35 1 0.35 0 0.4 0.05 0.4 0.1 0.4 0.15 0.4 0.2 0.4 0.25 0.4 0.3 0.4 0.35 0.4 0.4 0.4 0.45 0.4 0.5 0.4 0.55 0.4 0.6 0.4 0.65 0.4 0.7 0.4 0.75 0.4 0.8 0.4 0.85 0.4 0.9 0.4 0.95 0.4 1 0.4 0 0.45 0.05 0.45 0.1 0.45 0.15 0.45 0.2 0.45 0.25 0.45 0.3 0.45 0.35 0.45 0.4 0.45 0.45 0.45 0.5 0.45 0.55 0.45 0.6 0.45 0.65 0.45 0.7 0.45 0.75 0.45 0.8 0.45 0.85 0.45 0.9 0.45 0.95 0.45 1 0.45 0 0.5 0.05 0.5 0.1 0.5 0.15 0.5 0.2 0.5 0.25 0.5 0.3 0.5 0.35 0.5 0.4 0.5 0.45 0.5 0.5 0.5 0.55 0.5 0.6 0.5 0.65 0.5 0.7 0.5 0.75 0.5 0.8 0.5 0.85 0.5 0.9 0.5 0.95 0.5 1 0.5 0 0.55 0.05 0.55 0.1 0.55 0.15 0.55 0.2 0.55 0.25 0.55 0.3 0.55 0.35 0.55 0.4 0.55 0.45 0.55 0.5 0.55 0.55 0.55 0.6 0.55 0.65 0.55 0.7 0.55 0.75 0.55 0.8 0.55 0.85 0.55 0.9 0.55 0.95 0.55 1 0.55 0 0.6 0.05 0.6 0.1 0.6 0.15 0.6 0.2 0.6 0.25 0.6 0.3 0.6 0.35 0.6 0.4 0.6 0.45 0.6 0.5 0.6 0.55 0.6 0.6 0.6 0.65 0.6 0.7 0.6 0.75 0.6 0.8 0.6 0.85 0.6 0.9 0.6 0.95 0.6 1 0.6 0 0.65 0.05 0.65 0.1 0.65 0.15 0.65 0.2 0.65 0.25 0.65 0.3 0.65 0.35 0.65 0.4 0.65 0.45 0.65 0.5 0.65 0.55 0.65 0.6 0.65 0.65 0.65 0.7 0.65 0.75 0.65 0.8 0.65 0.85 0.65 0.9 0.65 0.95 0.65 1 0.65 0 0.7 0.05 0.7 0.1 0.7 0.15 0.7 0.2 0.7 0.25 0.7 0.3 0.7 0.35 0.7 0.4 0.7 0.45 0.7 0.5 0.7 0.55 0.7 0.6 0.7 0.65 0.7 0.7 0.7 0.75 0.7 0.8 0.7 0.85 0.7 0.9 0.7 0.95 0.7 1 0.7 0 0.75 0.05 0.75 0.1 0.75 0.15 0.75 0.2 0.75 0.25 0.75 0.3 0.75 0.35 0.75 0.4 0.75 0.45 0.75 0.5 0.75 0.55 0.75 0.6 0.75 0.65 0.75 0.7 0.75 0.75 0.75 0.8 0.75 0.85 0.75 0.9 0.75 0.95 0.75 1 0.75 0 0.8 0.05 0.8 0.1 0.8 0.15 0.8 0.2 0.8 0.25 0.8 0.3 0.8 0.35 0.8 0.4 0.8 0.45 0.8 0.5 0.8 0.55 0.8 0.6 0.8 0.65 0.8 0.7 0.8 0.75 0.8 0.8 0.8 0.85 0.8 0.9 0.8 0.95 0.8 1 0.8 0 0.85 0.05 0.85 0.1 0.85 0.15 0.85 0.2 0.85 0.25 0.85 0.3 0.85 0.35 0.85 0.4 0.85 0.45 0.85 0.5 0.85 0.55 0.85 0.6 0.85 0.65 0.85 0.7 0.85 0.75 0.85 0.8 0.85 0.85 0.85 0.9 0.85 0.95 0.85 1 0.85 0 0.9 0.05 0.9 0.1 0.9 0.15 0.9 0.2 0.9 0.25 0.9 0.3 0.9 0.35 0.9 0.4 0.9 0.45 0.9 0.5 0.9 0.55 0.9 0.6 0.9 0.65 0.9 0.7 0.9 0.75 0.9 0.8 0.9 0.85 0.9 0.9 0.9 0.95 0.9 1 0.9 0 0.95 0.05 0.95 0.1 0.95 0.15 0.95 0.2 0.95 0.25 0.95 0.3 0.95 0.35 0.95 0.4 0.95 0.45 0.95 0.5 0.95 0.55 0.95 0.6 0.95 0.65 0.95 0.7 0.95 0.75 0.95 0.8 0.95 0.85 0.95 0.9 0.95 0.95 0.95 1 0.95 0 1 0.05 1 0.1 1 0.15 1 0.2 1 0.25 1 0.3 1 0.35 1 0.4 1 0.45 1 0.5 1 0.55 1 0.6 1 0.65 1 0.7 1 0.75 1 0.8 1 0.85 1 0.9 1 0.95 1 1 1 0.975529 1.34549 0.904509 1.20611 0.793893 1.09549 0.654509 1.02447 0.5 1 0.345491 1.02447 0.206107 1.09549 0.095491 1.20611 0.024472 1.34549 0 1.5 0.024472 1.65451 0.095491 1.79389 0.206107 1.90451 0.345491 1.97553 0.5 2 0.654508 1.97553 0.793893 1.90451 0.904508 1.79389 0.975528 1.65451 1 1.5 0.817019 1.39699 0.769673 1.30407 0.695929 1.23033 0.603006 1.18298 0.5 1.16667 0.396994 1.18298 0.304071 1.23033 0.230328 1.30407 0.182981 1.39699 0.166667 1.5 0.182981 1.60301 0.230328 1.69593 0.304072 1.76967 0.396994 1.81702 0.5 1.83333 0.603006 1.81702 0.695928 1.76967 0.769672 1.69593 0.817019 1.60301 0.833333 1.5 0.658509 1.4485 0.634836 1.40204 0.597964 1.36516 0.551503 1.34149 0.5 1.33333 0.448497 1.34149 0.402036 1.36516 0.365164 1.40204 0.341491 1.4485 0.333333 1.5 0.341491 1.5515 0.365164 1.59796 0.402036 1.63484 0.448497 1.65851 0.5 1.66667 0.551503 1.65851 0.597964 1.63484 0.634836 1.59796 0.658509 1.5515 0.666667 1.5 0.5 -0.5 0.5 1.5</float_array>
          <technique_common>
            <accessor source="#pCylinderShape1-lib-map1-array" count="563" stride="2">
              <param name="S" type="float"/>
              <param name="T" type="float"/>
            </accessor>
          </technique_common>
        </source>
        <vertices id="pCylinderShape1-lib-vertices">
          <input semantic="POSITION" source="#pCylinderShape1-lib-positions"/>
        </vertices>
        <triangles material="ATGMaterial1SG" count="1000">
          <input semantic="VERTEX" source="#pCylinderShape1-lib-vertices" offset="0"/>
          <input semantic="NORMAL" source="#pCylinderShape1-lib-normals" offset="1"/>
          <input semantic="TEXCOORD" source="#pCylinderShape1-lib-map1" offset="2" set="0"/>
          <p>0 0 0 1 1 1 21 2 21 0 0 0 21 2 21 20 3 20 1 1 1 2 4 2 22 5 22 1 1 1 22 5 22 21 2 21 2 4 2 3 6 3 23 7 23 2 4 2 23 7 23 22 5 22 3 6 3 4 8 4 24 9 24 3 6 3 24 9 24 23 7 23 4 8 4 5 10 5 25 11 25 4 8 4 25 11 25 24 9 24 5 10 5 6 12 6 26 13 26 5 10 5 26 13 26 25 11 25 6 12 6 7 14 7 27 15 27 6 12 6 27 15 27 26 13 26 7 14 7 8 16 8 28 17 28 7 14 7 28 17 28 27 15 27 8 16 8 9 18 9 29 19 29 8 16 8 29 19 29 28 17 28 9 18 9 10 20 10 30 21 30 9 18 9 30 21 30 29 19 29 10 20 10 11 22 11 31 23 31 10 20 10 31 23 31 30 21 30 11 22 11 12 24 12 32 25 32 11 22 11 32 25 32 31 23 31 12 24 12 13 26 13 33 27 33 12 24 12 33 27 33 32 25 32 13 26 13 14 28 14 34 29 34 13 26 13 34 29 34 33 27 33 14 28 14 15 30 15 35 31 35 14 28 14 35 31 35 34 29 34 15 30 15 16 32 16 36 33 36 15 30 15 36 33 36 35 31 35 16 32 16 17 34 17 37 35 37 16 32 16 37 35 37 36 33 36 17 34 17 18 36 18 38 37 38 17 34 17 38 37 38 37 35 37 18 36 18 19 38 19 39 39 39 18 36 18 39 39 39 38 37 38 19 38 19 0 0 0 20 3 20 19 38 19 20 3 20 39 39 39 20 3 20 21 2 21 41 40 41 20 3 20 41 40 41 40 41 40 21 2 21 22 5 22 42 42 42 21 2 21 42 42 42 41 40 41 22 5 22 23 7 23 43 43 43 22 5 22 43 43 43 42 42 42 23 7 23 24 9 24 44 44 44 23 7 23 44 44 44 43 43 43 24 9 24 25 11 25 45 45 45 24 9 24 45 45 45 44 44 44 25 11 25 26 13 26 46 46 46 25 11 25 46 46 46 45 45 45 26 13 26 27 15 27 47 47 47 26 13 26 47 47 47 46 46 46 27 15 27 28 17 28 48 48 48 27 15 27 48 48 48 47 47 47 28 17 28 29 19 29 49 49 49 28 17 28 49 49 49 48 48 48 29 19 29 30 21 30 50 50 50 29 19 29 50 50 50 49 49 49 30 21 30 31 23 31 51 51 51 30 21 30 51 51 51 50 50 50 31 23 31 32 25 32 52 52 52 31 23 31 52 52 52 51 51 51 32 25 32 33 27 33 53 53 53 32 25 32 53 53 53 52 52 52 33 27 33 34 29 34 54 54 54 33 27 33 54 54 54 53 53 53 34 29 34 35 31 35 55 55 55 34 29 34 55 55 55 54 54 54 35 31 35 36 33 36 56 56 56 35 31 35 56 56 56 55 55 55 36 33 36 37 35 37 57 57 57 36 33 36 57 57 57 56 56 56 37 35 37 38 37 38 58 58 58 37 35 37 58 58 58 57 57 57 38 37 38 39 39 39 59 59 59 38 37 38 59 59 59 58 58 58 39 39 39 20 3 20 40 41 40 39 39 39 40 41 40 59 59 59 40 60 60 41 61 61 61 62 82 40 60 60 61 62 82 60 63 81 41 61 61 42 64 62 62 65 83 41 61 61 62 65 83 61 62 82 42 64 62 43 66 63 63 67 84 42 64 62 63 67 84 62 65 83 43 66 63 44 68 64 64 69 85 43 66 63 64 69 85 63 67 84 44 68 64 45 70 65 65 71 86 44 68 64 65 71 86 64 69 85 45 70 65 46 72 66 66 73 87 45 70 65 66 73 87 65 71 86 46 72 66 47 74 67 67 75 88 46 72 66 67 75 88 66 73 87 47 74 67 48 76 68 68 77 89 47 74 67 68 77 89 67 75 88 48 76 68 49 78 69 69 79 90 48 76 68 69 79 90 68 77 89 49 78 69 50 80 70 70 81 91 49 78 69 70 81 91 69 79 90 50 80 70 51 82 71 71 83 92 50 80 70 71 83 92 70 81 91 51 82 71 52 84 72 72 85 93 51 82 71 72 85 93 71 83 92 52 84 72 53 86 73 73 87 94 52 84 72 73 87 94 72 85 93 53 86 73 54 88 74 74 89 95 53 86 73 74 89 95 73 87 94 54 88 74 55 90 75 75 91 96 54 88 74 75 91 96 74 89 95 55 90 75 56 92 76 76 93 97 55 90 75 76 93 97 75 91 96 56 92 76 57 94 77 77 95 98 56 92 76 77 95 98 76 93 97 57 94 77 58 96 78 78 97 99 57 94 77 78 97 99 77 95 98 58 96 78 59 98 79 79 99 100 58 96 78 79 99 100 78 97 99 59 98 79 40 60 80 60 63 101 59 98 79 60 63 101 79 99 100 60 63 81 61 62 82 81 100 103 60 63 81 81 100 103 80 101 102 61 62 82 62 65 83 82 102 104 61 62 82 82 102 104 81 100 103 62 65 83 63 67 84 83 103 105 62 65 83 83 103 105 82 102 104 63 67 84 64 69 85 84 104 106 63 67 84 84 104 106 83 103 105 64 69 85 65 71 86 85 105 107 64 69 85 85 105 107 84 104 106 65 71 86 66 73 87 86 106 108 65 71 86 86 106 108 85 105 107 66 73 87 67 75 88 87 107 109 66 73 87 87 107 109 86 106 108 67 75 88 68 77 89 88 108 110 67 75 88 88 108 110 87 107 109 68 77 89 69 79 90 89 109 111 68 77 89 89 109 111 88 108 110 69 79 90 70 81 91 90 110 112 69 79 90 90 110 112 89 109 111 70 81 91 71 83 92 91 111 113 70 81 91 91 111 113 90 110 112 71 83 92 72 85 93 92 112 114 71 83 92 92 112 114 91 111 113 72 85 93 73 87 94 93 113 115 72 85 93 93 113 115 92 112 114 73 87 94 74 89 95 94 114 116 73 87 94 94 114 116 93 113 115 74 89 95 75 91 96 95 115 117 74 89 95 95 115 117 94 114 116 75 91 96 76 93 97 96 116 118 75 91 96 96 116 118 95 115 117 76 93 97 77 95 98 97 117 119 76 93 97 97 117 119 96 116 118 77 95 98 78 97 99 98 118 120 77 95 98 98 118 120 97 117 119 78 97 99 79 99 100 99 119 121 78 97 99 99 119 121 98 118 120 79 99 100 60 63 101 80 101 122 79 99 100 80 101 122 99 119 121 80 101 102 81 100 103 101 120 124 80 101 102 101 120 124 100 121 123 81 100 103 82 102 104 102 122 125 81 100 103 102 122 125 101 120 124 82 102 104 83 103 105 103 123 126 82 102 104 103 123 126 102 122 125 83 103 105 84 104 106 104 124 127 83 103 105 104 124 127 103 123 126 84 104 106 85 105 107 105 125 128 84 104 106 105 125 128 104 124 127 85 105 107 86 106 108 106 126 129 85 105 107 106 126 129 105 125 128 86 106 108 87 107 109 107 127 130 86 106 108 107 127 130 106 126 129 87 107 109 88 108 110 108 128 131 87 107 109 108 128 131 107 127 130 88 108 110 89 109 111 109 129 132 88 108 110 109 129 132 108 128 131 89 109 111 90 110 112 110 130 133 89 109 111 110 130 133 109 129 132 90 110 112 91 111 113 111 131 134 90 110 112 111 131 134 110 130 133 91 111 113 92 112 114 112 132 135 91 111 113 112 132 135 111 131 134 92 112 114 93 113 115 113 133 136 92 112 114 113 133 136 112 132 135 93 113 115 94 114 116 114 134 137 93 113 115 114 134 137 113 133 136 94 114 116 95 115 117 115 135 138 94 114 116 115 135 138 114 134 137 95 115 117 96 116 118 116 136 139 95 115 117 116 136 139 115 135 138 96 116 118 97 117 119 117 137 140 96 116 118 117 137 140 116 136 139 97 117 119 98 118 120 118 138 141 97 117 119 118 138 141 117 137 140 98 118 120 99 119 121 119 139 142 98 118 120 119 139 142 118 138 141 99 119 121 80 101 122 100 121 143 99 119 121 100 121 143 119 139 142 100 121 123 101 120 124 121 140 145 100 121 123 121 140 145 120 141 144 101 120 124 102 122 125 122 142 146 101 120 124 122 142 146 121 140 145 102 122 125 103 123 126 123 143 147 102 122 125 123 143 147 122 142 146 103 123 126 104 124 127 124 144 148 103 123 126 124 144 148 123 143 147 104 124 127 105 125 128 125 145 149 104 124 127 125 145 149 124 144 148 105 125 128 106 126 129 126 146 150 105 125 128 126 146 150 125 145 149 106 126 129 107 127 130 127 147 151 106 126 129 127 147 151 126 146 150 107 127 130 108 128 131 128 148 152 107 127 130 128 148 152 127 147 151 108 128 131 109 129 132 129 149 153 108 128 131 129 149 153 128 148 152 109 129 132 110 130 133 130 150 154 109 129 132 130 150 154 129 149 153 110 130 133 111 131 134 131 151 155 110 130 133 131 151 155 130 150 154 111 131 134 112 132 135 132 152 156 111 131 134 132 152 156 131 151 155 112 132 135 113 133 136 133 153 157 112 132 135 133 153 157 132 152 156 113 133 136 114 134 137 134 154 158 113 133 136 134 154 158 133 153 157 114 134 137 115 135 138 135 155 159 114 134 137 135 155 159 134 154 158 115 135 138 116 136 139 136 156 160 115 135 138 136 156 160 135 155 159 116 136 139 117 137 140 137 157 161 116 136 139 137 157 161 136 156 160 117 137 140 118 138 141 138 158 162 117 137 140 138 158 162 137 157 161 118 138 141 119 139 142 139 159 163 118 138 141 139 159 163 138 158 162 119 139 142 100 121 143 120 141 164 119 139 142 120 141 164 139 159 163 120 141 144 121 140 145 141 160 166 120 141 144 141 160 166 140 161 165 121 140 145 122 142 146 142 162 167 121 140 145 142 162 167 141 160 166 122 142 146 123 143 147 143 163 168 122 142 146 143 163 168 142 162 167 123 143 147 124 144 148 144 164 169 123 143 147 144 164 169 143 163 168 124 144 148 125 145 149 145 165 170 124 144 148 145 165 170 144 164 169 125 145 149 126 146 150 146 166 171 125 145 149 146 166 171 145 165 170 126 146 150 127 147 151 147 167 172 126 146 150 147 167 172 146 166 171 127 147 151 128 148 152 148 168 173 127 147 151 148 168 173 147 167 172 128 148 152 129 149 153 149 169 174 128 148 152 149 169 174 148 168 173 129 149 153 130 150 154 150 170 175 129 149 153 150 170 175 149 169 174 130 150 154 131 151 155 151 171 176 130 150 154 151 171 176 150 170 175 131 151 155 132 152 156 152 172 177 131 151 155 152 172 177 151 171 176 132 152 156 133 153 157 153 173 178 132 152 156 153 173 178 152 172 177 133 153 157 134 154 158 154 174 179 133 153 157 154 174 179 153 173 178 134 154 158 135 155 159 155 175 180 134 154 158 155 175 180 154 174 179 135 155 159 136 156 160 156 176 181 135 155 159 156 176 181 155 175 180 136 156 160 137 157 161 157 177 182 136 156 160 157 177 182 156 176 181 137 157 161 138 158 162 158 178 183 137 157 161 158 178 183 157 177 182 138 158 162 139 159 163 159 179 184 138 158 162 159 179 184 158 178 183 139 159 163 120 141 164 140 161 185 139 159 163 140 161 185 159 179 184 140 161 165 141 160 166 161 180 187 140 161 165 161 180 187 160 181 186 141 160 166 142 162 167 162 182 188 141 160 166 162 182 188 161 180 187 142 162 167 143 163 168 163 183 189 142 162 167 163 183 189 162 182 188 143 163 168 144 164 169 164 184 190 143 163 168 164 184 190 163 183 189 144 164 169 145 165 170 165 185 191 144 164 169 165 185 191 164 184 190 145 165 170 146 166 171 166 186 192 145 165 170 166 186 192 165 185 191 146 166 171 147 167 172 167 187 193 146 166 171 167 187 193 166 186 192 147 167 172 148 168 173 168 188 194 147 167 172 168 188 194 167 187 193 148 168 173 149 169 174 169 189 195 148 168 173 169 189 195 168 188 194 149 169 174 150 170 175 170 190 196 149 169 174 170 190 196 169 189 195 150 170 175 151 171 176 171 191 197 150 170 175 171 191 197 170 190 196 151 171 176 152 172 177 172 192 198 151 171 176 172 192 198 171 191 197 152 172 177 153 173 178 173 193 199 152 172 177 173 193 199 172 192 198 153 173 178 154 174 179 174 194 200 153 173 178 174 194 200 173 193 199 154 174 179 155 175 180 175 195 201 154 174 179 175 195 201 174 194 200 155 175 180 156 176 181 176 196 202 155 175 180 176 196 202 175 195 201 156 176 181 157 177 182 177 197 203 156 176 181 177 197 203 176 196 202 157 177 182 158 178 183 178 198 204 157 177 182 178 198 204 177 197 203 158 178 183 159 179 184 179 199 205 158 178 183 179 199 205 178 198 204 159 179 184 140 161 185 160 181 206 159 179 184 160 181 206 179 199 205 160 181 186 161 180 187 181 200 208 160 181 186 181 200 208 180 201 207 161 180 187 162 182 188 182 202 209 161 180 187 182 202 209 181 200 208 162 182 188 163 183 189 183 203 210 162 182 188 183 203 210 182 202 209 163 183 189 164 184 190 184 204 211 163 183 189 184 204 211 183 203 210 164 184 190 165 185 191 185 205 212 164 184 190 185 205 212 184 204 211 165 185 191 166 186 192 186 206 213 165 185 191 186 206 213 185 205 212 166 186 192 167 187 193 187 207 214 166 186 192 187 207 214 186 206 213 167 187 193 168 188 194 188 208 215 167 187 193 188 208 215 187 207 214 168 188 194 169 189 195 189 209 216 168 188 194 189 209 216 188 208 215 169 189 195 170 190 196 190 210 217 169 189 195 190 210 217 189 209 216 170 190 196 171 191 197 191 211 218 170 190 196 191 211 218 190 210 217 171 191 197 172 192 198 192 212 219 171 191 197 192 212 219 191 211 218 172 192 198 173 193 199 193 213 220 172 192 198 193 213 220 192 212 219 173 193 199 174 194 200 194 214 221 173 193 199 194 214 221 193 213 220 174 194 200 175 195 201 195 215 222 174 194 200 195 215 222 194 214 221 175 195 201 176 196 202 196 216 223 175 195 201 196 216 223 195 215 222 176 196 202 177 197 203 197 217 224 176 196 202 197 217 224 196 216 223 177 197 203 178 198 204 198 218 225 177 197 203 198 218 225 197 217 224 178 198 204 179 199 205 199 219 226 178 198 204 199 219 226 198 218 225 179 199 205 160 181 206 180 201 227 179 199 205 180 201 227 199 219 226 180 201 207 181 200 208 201 220 229 180 201 207 201 220 229 200 221 228 181 200 208 182 202 209 202 222 230 181 200 208 202 222 230 201 220 229 182 202 209 183 203 210 203 223 231 182 202 209 203 223 231 202 222 230 183 203 210 184 204 211 204 224 232 183 203 210 204 224 232 203 223 231 184 204 211 185 205 212 205 225 233 184 204 211 205 225 233 204 224 232 185 205 212 186 206 213 206 226 234 185 205 212 206 226 234 205 225 233 186 206 213 187 207 214 207 227 235 186 206 213 207 227 235 206 226 234 187 207 214 188 208 215 208 228 236 187 207 214 208 228 236 207 227 235 188 208 215 189 209 216 209 229 237 188 208 215 209 229 237 208 228 236 189 209 216 190 210 217 210 230 238 189 209 216 210 230 238 209 229 237 190 210 217 191 211 218 211 231 239 190 210 217 211 231 239 210 230 238 191 211 218 192 212 219 212 232 240 191 211 218 212 232 240 211 231 239 192 212 219 193 213 220 213 233 241 192 212 219 213 233 241 212 232 240 193 213 220 194 214 221 214 234 242 193 213 220 214 234 242 213 233 241 194 214 221 195 215 222 215 235 243 194 214 221 215 235 243 214 234 242 195 215 222 196 216 223 216 236 244 195 215 222 216 236 244 215 235 243 196 216 223 197 217 224 217 237 245 196 216 223 217 237 245 216 236 244 197 217 224 198 218 225 218 238 246 197 217 224 218 238 246 217 237 245 198 218 225 199 219 226 219 239 247 198 218 225 219 239 247 218 238 246 199 219 226 180 201 227 200 221 248 199 219 226 200 221 248 219 239 247 200 221 228 201 220 229 221 240 250 200 221 228 221 240 250 220 241 249 201 220 229 202 222 230 222 242 251 201 220 229 222 242 251 221 240 250 202 222 230 203 223 231 223 243 252 202 222 230 223 243 252 222 242 251 203 223 231 204 224 232 224 244 253 203 223 231 224 244 253 223 243 252 204 224 232 205 225 233 225 245 254 204 224 232 225 245 254 224 244 253 205 225 233 206 226 234 226 246 255 205 225 233 226 246 255 225 245 254 206 226 234 207 227 235 227 247 256 206 226 234 227 247 256 226 246 255 207 227 235 208 228 236 228 248 257 207 227 235 228 248 257 227 247 256 208 228 236 209 229 237 229 249 258 208 228 236 229 249 258 228 248 257 209 229 237 210 230 238 230 250 259 209 229 237 230 250 259 229 249 258 210 230 238 211 231 239 231 251 260 210 230 238 231 251 260 230 250 259 211 231 239 212 232 240 232 252 261 211 231 239 232 252 261 231 251 260 212 232 240 213 233 241 233 253 262 212 232 240 233 253 262 232 252 261 213 233 241 214 234 242 234 254 263 213 233 241 234 254 263 233 253 262 214 234 242 215 235 243 235 255 264 214 234 242 235 255 264 234 254 263 215 235 243 216 236 244 236 256 265 215 235 243 236 256 265 235 255 264 216 236 244 217 237 245 237 257 266 216 236 244 237 257 266 236 256 265 217 237 245 218 238 246 238 258 267 217 237 245 238 258 267 237 257 266 218 238 246 219 239 247 239 259 268 218 238 246 239 259 268 238 258 267 219 239 247 200 221 248 220 241 269 219 239 247 220 241 269 239 259 268 220 241 249 221 240 250 241 260 271 220 241 249 241 260 271 240 261 270 221 240 250 222 242 251 242 262 272 221 240 250 242 262 272 241 260 271 222 242 251 223 243 252 243 263 273 222 242 251 243 263 273 242 262 272 223 243 252 224 244 253 244 264 274 223 243 252 244 264 274 243 263 273 224 244 253 225 245 254 245 265 275 224 244 253 245 265 275 244 264 274 225 245 254 226 246 255 246 266 276 225 245 254 246 266 276 245 265 275 226 246 255 227 247 256 247 267 277 226 246 255 247 267 277 246 266 276 227 247 256 228 248 257 248 268 278 227 247 256 248 268 278 247 267 277 228 248 257 229 249 258 249 269 279 228 248 257 249 269 279 248 268 278 229 249 258 230 250 259 250 270 280 229 249 258 250 270 280 249 269 279 230 250 259 231 251 260 251 271 281 230 250 259 251 271 281 250 270 280 231 251 260 232 252 261 252 272 282 231 251 260 252 272 282 251 271 281 232 252 261 233 253 262 253 273 283 232 252 261 253 273 283 252 272 282 233 253 262 234 254 263 254 274 284 233 253 262 254 274 284 253 273 283 234 254 263 235 255 264 255 275 285 234 254 263 255 275 285 254 274 284 235 255 264 236 256 265 256 276 286 235 255 264 256 276 286 255 275 285 236 256 265 237 257 266 257 277 287 236 256 265 257 277 287 256 276 286 237 257 266 238 258 267 258 278 288 237 257 266 258 278 288 257 277 287 238 258 267 239 259 268 259 279 289 238 258 267 259 279 289 258 278 288 239 259 268 220 241 269 240 261 290 239 259 268 240 261 290 259 279 289 240 261 270 241 260 271 261 280 292 240 261 270 261 280 292 260 281 291 241 260 271 242 262 272 262 282 293 241 260 271 262 282 293 261 280 292 242 262 272 243 263 273 263 283 294 242 262 272 263 283 294 262 282 293 243 263 273 244 264 274 264 284 295 243 263 273 264 284 295 263 283 294 244 264 274 245 265 275 265 285 296 244 264 274 265 285 296 264 284 295 245 265 275 246 266 276 266 286 297 245 265 275 266 286 297 265 285 296 246 266 276 247 267 277 267 287 298 246 266 276 267 287 298 266 286 297 247 267 277 248 268 278 268 288 299 247 267 277 268 288 299 267 287 298 248 268 278 249 269 279 269 289 300 248 268 278 269 289 300 268 288 299 249 269 279 250 270 280 270 290 301 249 269 279 270 290 301 269 289 300 250 270 280 251 271 281 271 291 302 250 270 280 271 291 302 270 290 301 251 271 281 252 272 282 272 292 303 251 271 281 272 292 303 271 291 302 252 272 282 253 273 283 273 293 304 252 272 282 273 293 304 272 292 303 253 273 283 254 274 284 274 294 305 253 273 283 274 294 305 273 293 304 254 274 284 255 275 285 275 295 306 254 274 284 275 295 306 274 294 305 255 275 285 256 276 286 276 296 307 255 275 285 276 296 307 275 295 306 256 276 286 257 277 287 277 297 308 256 276 286 277 297 308 276 296 307 257 277 287 258 278 288 278 298 309 257 277 287 278 298 309 277 297 308 258 278 288 259 279 289 279 299 310 258 278 288 279 299 310 278 298 309 259 279 289 240 261 290 260 281 311 259 279 289 260 281 311 279 299 310 260 281 291 261 280 292 281 300 313 260 281 291 281 300 313 280 301 312 261 280 292 262 282 293 282 302 314 261 280 292 282 302 314 281 300 313 262 282 293 263 283 294 283 303 315 262 282 293 283 303 315 282 302 314 263 283 294 264 284 295 284 304 316 263 283 294 284 304 316 283 303 315 264 284 295 265 285 296 285 305 317 264 284 295 285 305 317 284 304 316 265 285 296 266 286 297 286 306 318 265 285 296 286 306 318 285 305 317 266 286 297 267 287 298 287 307 319 266 286 297 287 307 319 286 306 318 267 287 298 268 288 299 288 308 320 267 287 298 288 308 320 287 307 319 268 288 299 269 289 300 289 309 321 268 288 299 289 309 321 288 308 320 269 289 300 270 290 301 290 310 322 269 289 300 290 310 322 289 309 321 270 290 301 271 291 302 291 311 323 270 290 301 291 311 323 290 310 322 271 291 302 272 292 303 292 312 324 271 291 302 292 312 324 291 311 323 272 292 303 273 293 304 293 313 325 272 292 303 293 313 325 292 312 324 273 293 304 274 294 305 294 314 326 273 293 304 294 314 326 293 313 325 274 294 305 275 295 306 295 315 327 274 294 305 295 315 327 294 314 326 275 295 306 276 296 307 296 316 328 275 295 306 296 316 328 295 315 327 276 296 307 277 297 308 297 317 329 276 296 307 297 317 329 296 316 328 277 297 308 278 298 309 298 318 330 277 297 308 298 318 330 297 317 329 278 298 309 279 299 310 299 319 331 278 298 309 299 319 331 298 318 330 279 299 310 260 281 311 280 301 332 279 299 310 280 301 332 299 319 331 280 301 312 281 300 313 301 320 334 280 301 312 301 320 334 300 321 333 281 300 313 282 302 314 302 322 335 281 300 313 302 322 335 301 320 334 282 302 314 283 303 315 303 323 336 282 302 314 303 323 336 302 322 335 283 303 315 284 304 316 304 324 337 283 303 315 304 324 337 303 323 336 284 304 316 285 305 317 305 325 338 284 304 316 305 325 338 304 324 337 285 305 317 286 306 318 306 326 339 285 305 317 306 326 339 305 325 338 286 306 318 287 307 319 307 327 340 286 306 318 307 327 340 306 326 339 287 307 319 288 308 320 308 328 341 287 307 319 308 328 341 307 327 340 288 308 320 289 309 321 309 329 342 288 308 320 309 329 342 308 328 341 289 309 321 290 310 322 310 330 343 289 309 321 310 330 343 309 329 342 290 310 322 291 311 323 311 331 344 290 310 322 311 331 344 310 330 343 291 311 323 292 312 324 312 332 345 291 311 323 312 332 345 311 331 344 292 312 324 293 313 325 313 333 346 292 312 324 313 333 346 312 332 345 293 313 325 294 314 326 314 334 347 293 313 325 314 334 347 313 333 346 294 314 326 295 315 327 315 335 348 294 314 326 315 335 348 314 334 347 295 315 327 296 316 328 316 336 349 295 315 327 316 336 349 315 335 348 296 316 328 297 317 329 317 337 350 296 316 328 317 337 350 316 336 349 297 317 329 298 318 330 318 338 351 297 317 329 318 338 351 317 337 350 298 318 330 299 319 331 319 339 352 298 318 330 319 339 352 318 338 351 299 319 331 280 301 332 300 321 353 299 319 331 300 321 353 319 339 352 300 321 333 301 320 334 321 340 355 300 321 333 321 340 355 320 341 354 301 320 334 302 322 335 322 342 356 301 320 334 322 342 356 321 340 355 302 322 335 303 323 336 323 343 357 302 322 335 323 343 357 322 342 356 303 323 336 304 324 337 324 344 358 303 323 336 324 344 358 323 343 357 304 324 337 305 325 338 325 345 359 304 324 337 325 345 359 324 344 358 305 325 338 306 326 339 326 346 360 305 325 338 326 346 360 325 345 359 306 326 339 307 327 340 327 347 361 306 326 339 327 347 361 326 346 360 307 327 340 308 328 341 328 348 362 307 327 340 328 348 362 327 347 361 308 328 341 309 329 342 329 349 363 308 328 341 329 349 363 328 348 362 309 329 342 310 330 343 330 350 364 309 329 342 330 350 364 329 349 363 310 330 343 311 331 344 331 351 365 310 330 343 331 351 365 330 350 364 311 331 344 312 332 345 332 352 366 311 331 344 332 352 366 331 351 365 312 332 345 313 333 346 333 353 367 312 332 345 333 353 367 332 352 366 313 333 346 314 334 347 334 354 368 313 333 346 334 354 368 333 353 367 314 334 347 315 335 348 335 355 369 314 334 347 335 355 369 334 354 368 315 335 348 316 336 349 336 356 370 315 335 348 336 356 370 335 355 369 316 336 349 317 337 350 337 357 371 316 336 349 337 357 371 336 356 370 317 337 350 318 338 351 338 358 372 317 337 350 338 358 372 337 357 371 318 338 351 319 339 352 339 359 373 318 338 351 339 359 373 338 358 372 319 339 352 300 321 353 320 341 374 319 339 352 320 341 374 339 359 373 320 341 354 321 340 355 341 360 376 320 341 354 341 360 376 340 361 375 321 340 355 322 342 356 342 362 377 321 340 355 342 362 377 341 360 376 322 342 356 323 343 357 343 363 378 322 342 356 343 363 378 342 362 377 323 343 357 324 344 358 344 364 379 323 343 357 344 364 379 343 363 378 324 344 358 325 345 359 345 365 380 324 344 358 345 365 380 344 364 379 325 345 359 326 346 360 346 366 381 325 345 359 346 366 381 345 365 380 326 346 360 327 347 361 347 367 382 326 346 360 347 367 382 346 366 381 327 347 361 328 348 362 348 368 383 327 347 361 348 368 383 347 367 382 328 348 362 329 349 363 349 369 384 328 348 362 349 369 384 348 368 383 329 349 363 330 350 364 350 370 385 329 349 363 350 370 385 349 369 384 330 350 364 331 351 365 351 371 386 330 350 364 351 371 386 350 370 385 331 351 365 332 352 366 352 372 387 331 351 365 352 372 387 351 371 386 332 352 366 333 353 367 353 373 388 332 352 366 353 373 388 352 372 387 333 353 367 334 354 368 354 374 389 333 353 367 354 374 389 353 373 388 334 354 368 335 355 369 355 375 390 334 354 368 355 375 390 354 374 389 335 355 369 336 356 370 356 376 391 335 355 369 356 376 391 355 375 390 336 356 370 337 357 371 357 377 392 336 356 370 357 377 392 356 376 391 337 357 371 338 358 372 358 378 393 337 357 371 358 378 393 357 377 392 338 358 372 339 359 373 359 379 394 338 358 372 359 379 394 358 378 393 339 359 373 320 341 374 340 361 395 339 359 373 340 361 395 359 379 394 340 361 375 341 360 376 361 380 397 340 361 375 361 380 397 360 381 396 341 360 376 342 362 377 362 382 398 341 360 376 362 382 398 361 380 397 342 362 377 343 363 378 363 383 399 342 362 377 363 383 399 362 382 398 343 363 378 344 364 379 364 384 400 343 363 378 364 384 400 363 383 399 344 364 379 345 365 380 365 385 401 344 364 379 365 385 401 364 384 400 345 365 380 346 366 381 366 386 402 345 365 380 366 386 402 365 385 401 346 366 381 347 367 382 367 387 403 346 366 381 367 387 403 366 386 402 347 367 382 348 368 383 368 388 404 347 367 382 368 388 404 367 387 403 348 368 383 349 369 384 369 389 405 348 368 383 369 389 405 368 388 404 349 369 384 350 370 385 370 390 406 349 369 384 370 390 406 369 389 405 350 370 385 351 371 386 371 391 407 350 370 385 371 391 407 370 390 406 351 371 386 352 372 387 372 392 408 351 371 386 372 392 408 371 391 407 352 372 387 353 373 388 373 393 409 352 372 387 373 393 409 372 392 408 353 373 388 354 374 389 374 394 410 353 373 388 374 394 410 373 393 409 354 374 389 355 375 390 375 395 411 354 374 389 375 395 411 374 394 410 355 375 390 356 376 391 376 396 412 355 375 390 376 396 412 375 395 411 356 376 391 357 377 392 377 397 413 356 376 391 377 397 413 376 396 412 357 377 392 358 378 393 378 398 414 357 377 392 378 398 414 377 397 413 358 378 393 359 379 394 379 399 415 358 378 393 379 399 415 378 398 414 359 379 394 340 361 395 360 381 416 359 379 394 360 381 416 379 399 415 360 381 396 361 380 397 381 400 418 360 381 396 381 400 418 380 401 417 361 380 397 362 382 398 382 402 419 361 380 397 382 402 419 381 400 418 362 382 398 363 383 399 383 403 420 362 382 398 383 403 420 382 402 419 363 383 399 364 384 400 384 404 421 363 383 399 384 404 421 383 403 420 364 384 400 365 385 401 385 405 422 364 384 400 385 405 422 384 404 421 365 385 401 366 386 402 386 406 423 365 385 401 386 406 423 385 405 422 366 386 402 367 387 403 387 407 424 366 386 402 387 407 424 386 406 423 367 387 403 368 388 404 388 408 425 367 387 403 388 408 425 387 407 424 368 388 404 369 389 405 389 409 426 368 388 404 389 409 426 388 408 425 369 389 405 370 390 406 390 410 427 369 389 405 390 410 427 389 409 426 370 390 406 371 391 407 391 411 428 370 390 406 391 411 428 390 410 427 371 391 407 372 392 408 392 412 429 371 391 407 392 412 429 391 411 428 372 392 408 373 393 409 393 413 430 372 392 408 393 413 430 392 412 429 373 393 409 374 394 410 394 414 431 373 393 409 394 414 431 393 413 430 374 394 410 375 395 411 395 415 432 374 394 410 395 415 432 394 414 431 375 395 411 376 396 412 396 416 433 375 395 411 396 416 433 395 415 432 376 396 412 377 397 413 397 417 434 376 396 412 397 417 434 396 416 433 377 397 413 378 398 414 398 418 435 377 397 413 398 418 435 397 417 434 378 398 414 379 399 415 399 419 436 378 398 414 399 419 436 398 418 435 379 399 415 360 381 416 380 401 437 379 399 415 380 401 437 399 419 436 380 401 417 381 400 418 401 420 439 380 401 417 401 420 439 400 421 438 381 400 418 382 402 419 402 422 440 381 400 418 402 422 440 401 420 439 382 402 419 383 403 420 403 423 441 382 402 419 403 423 441 402 422 440 383 403 420 384 404 421 404 424 442 383 403 420 404 424 442 403 423 441 384 404 421 385 405 422 405 425 443 384 404 421 405 425 443 404 424 442 385 405 422 386 406 423 406 426 444 385 405 422 406 426 444 405 425 443 386 406 423 387 407 424 407 427 445 386 406 423 407 427 445 406 426 444 387 407 424 388 408 425 408 428 446 387 407 424 408 428 446 407 427 445 388 408 425 389 409 426 409 429 447 388 408 425 409 429 447 408 428 446 389 409 426 390 410 427 410 430 448 389 409 426 410 430 448 409 429 447 390 410 427 391 411 428 411 431 449 390 410 427 411 431 449 410 430 448 391 411 428 392 412 429 412 432 450 391 411 428 412 432 450 411 431 449 392 412 429 393 413 430 413 433 451 392 412 429 413 433 451 412 432 450 393 413 430 394 414 431 414 434 452 393 413 430 414 434 452 413 433 451 394 414 431 395 415 432 415 435 453 394 414 431 415 435 453 414 434 452 395 415 432 396 416 433 416 436 454 395 415 432 416 436 454 415 435 453 396 416 433 397 417 434 417 437 455 396 416 433 417 437 455 416 436 454 397 417 434 398 418 435 418 438 456 397 417 434 418 438 456 417 437 455 398 418 435 399 419 436 419 439 457 398 418 435 419 439 457 418 438 456 399 419 436 380 401 437 400 421 458 399 419 436 400 421 458 419 439 457 400 421 438 401 420 439 421 440 460 400 421 438 421 440 460 420 441 459 401 420 439 402 422 440 422 442 461 401 420 439 422 442 461 421 440 460 402 422 440 403 423 441 423 443 462 402 422 440 423 443 462 422 442 461 403 423 441 404 424 442 424 444 463 403 423 441 424 444 463 423 443 462 404 424 442 405 425 443 425 445 464 404 424 442 425 445 464 424 444 463 405 425 443 406 426 444 426 446 465 405 425 443 426 446 465 425 445 464 406 426 444 407 427 445 427 447 466 406 426 444 427 447 466 426 446 465 407 427 445 408 428 446 428 448 467 407 427 445 428 448 467 427 447 466 408 428 446 409 429 447 429 449 468 408 428 446 429 449 468 428 448 467 409 429 447 410 430 448 430 450 469 409 429 447 430 450 469 429 449 468 410 430 448 411 431 449 431 451 470 410 430 448 431 451 470 430 450 469 411 431 449 412 432 450 432 452 471 411 431 449 432 452 471 431 451 470 412 432 450 413 433 451 433 453 472 412 432 450 433 453 472 432 452 471 413 433 451 414 434 452 434 454 473 413 433 451 434 454 473 433 453 472 414 434 452 415 435 453 435 455 474 414 434 452 435 455 474 434 454 473 415 435 453 416 436 454 436 456 475 415 435 453 436 456 475 435 455 474 416 436 454 417 437 455 437 457 476 416 436 454 437 457 476 436 456 475 417 437 455 418 438 456 438 458 477 417 437 455 438 458 477 437 457 476 418 438 456 419 439 457 439 459 478 418 438 456 439 459 478 438 458 477 419 439 457 400 421 458 420 441 479 419 439 457 420 441 479 439 459 478 420 441 459 421 440 460 441 460 481 420 441 459 441 460 481 440 461 480 421 440 460 422 442 461 442 462 482 421 440 460 442 462 482 441 460 481 422 442 461 423 443 462 443 463 483 422 442 461 443 463 483 442 462 482 423 443 462 424 444 463 444 464 484 423 443 462 444 464 484 443 463 483 424 444 463 425 445 464 445 465 485 424 444 463 445 465 485 444 464 484 425 445 464 426 446 465 446 466 486 425 445 464 446 466 486 445 465 485 426 446 465 427 447 466 447 467 487 426 446 465 447 467 487 446 466 486 427 447 466 428 448 467 448 468 488 427 447 466 448 468 488 447 467 487 428 448 467 429 449 468 449 469 489 428 448 467 449 469 489 448 468 488 429 449 468 430 450 469 450 470 490 429 449 468 450 470 490 449 469 489 430 450 469 431 451 470 451 471 491 430 450 469 451 471 491 450 470 490 431 451 470 432 452 471 452 472 492 431 451 470 452 472 492 451 471 491 432 452 471 433 453 472 453 473 493 432 452 471 453 473 493 452 472 492 433 453 472 434 454 473 454 474 494 433 453 472 454 474 494 453 473 493 434 454 473 435 455 474 455 475 495 434 454 473 455 475 495 454 474 494 435 455 474 436 456 475 456 476 496 435 455 474 456 476 496 455 475 495 436 456 475 437 457 476 457 477 497 436 456 475 457 477 497 456 476 496 437 457 476 438 458 477 458 478 498 437 457 476 458 478 498 457 477 497 438 458 477 439 459 478 459 479 499 438 458 477 459 479 499 458 478 498 439 459 478 420 441 479 440 461 500 439 459 478 440 461 500 459 479 499 440 480 519 441 481 518 461 482 538 440 480 519 461 482 538 460 483 539 441 481 518 442 484 517 462 485 537 441 481 518 462 485 537 461 482 538 442 484 517 443 486 516 463 487 536 442 484 517 463 487 536 462 485 537 443 486 516 444 488 515 464 489 535 443 486 516 464 489 535 463 487 536 444 488 515 445 490 514 465 491 534 444 488 515 465 491 534 464 489 535 445 490 514 446 492 513 466 493 533 445 490 514 466 493 533 465 491 534 446 492 513 447 494 512 467 495 532 446 492 513 467 495 532 466 493 533 447 494 512 448 496 511 468 497 531 447 494 512 468 497 531 467 495 532 448 496 511 449 498 510 469 499 530 448 496 511 469 499 530 468 497 531 449 498 510 450 500 509 470 501 529 449 498 510 470 501 529 469 499 530 450 500 509 451 502 508 471 503 528 450 500 509 471 503 528 470 501 529 451 502 508 452 504 507 472 505 527 451 502 508 472 505 527 471 503 528 452 504 507 453 506 506 473 507 526 452 504 507 473 507 526 472 505 527 453 506 506 454 508 505 474 509 525 453 506 506 474 509 525 473 507 526 454 508 505 455 510 504 475 511 524 454 508 505 475 511 524 474 509 525 455 510 504 456 512 503 476 513 523 455 510 504 476 513 523 475 511 524 456 512 503 457 514 502 477 515 522 456 512 503 477 515 522 476 513 523 457 514 502 458 516 501 478 517 521 457 514 502 478 517 521 477 515 522 458 516 501 459 518 520 479 519 540 458 516 501 479 519 540 478 517 521 459 518 520 440 480 519 460 483 539 459 518 520 460 483 539 479 519 540 460 483 539 461 482 538 481 520 558 460 483 539 481 520 558 480 521 559 461 482 538 462 485 537 482 522 557 461 482 538 482 522 557 481 520 558 462 485 537 463 487 536 483 523 556 462 485 537 483 523 556 482 522 557 463 487 536 464 489 535 484 524 555 463 487 536 484 524 555 483 523 556 464 489 535 465 491 534 485 525 554 464 489 535 485 525 554 484 524 555 465 491 534 466 493 533 486 526 553 465 491 534 486 526 553 485 525 554 466 493 533 467 495 532 487 527 552 466 493 533 487 527 552 486 526 553 467 495 532 468 497 531 488 528 551 467 495 532 488 528 551 487 527 552 468 497 531 469 499 530 489 529 550 468 497 531 489 529 550 488 528 551 469 499 530 470 501 529 490 530 549 469 499 530 490 530 549 489 529 550 470 501 529 471 503 528 491 531 548 470 501 529 491 531 548 490 530 549 471 503 528 472 505 527 492 532 547 471 503 528 492 532 547 491 531 548 472 505 527 473 507 526 493 533 546 472 505 527 493 533 546 492 532 547 473 507 526 474 509 525 494 534 545 473 507 526 494 534 545 493 533 546 474 509 525 475 511 524 495 535 544 474 509 525 495 535 544 494 534 545 475 511 524 476 513 523 496 536 543 475 511 524 496 536 543 495 535 544 476 513 523 477 515 522 497 537 542 476 513 523 497 537 542 496 536 543 477 515 522 478 517 521 498 538 541 477 515 522 498 538 541 497 537 542 478 517 521 479 519 540 499 539 560 478 517 521 499 539 560 498 538 541 479 519 540 460 483 539 480 521 559 479 519 540 480 521 559 499 539 560 1 1 1 0 0 0 500 540 561 2 4 2 1 1 1 500 540 561 3 6 3 2 4 2 500 540 561 4 8 4 3 6 3 500 540 561 5 10 5 4 8 4 500 540 561 6 12 6 5 10 5 500 540 561 7 14 7 6 12 6 500 540 561 8 16 8 7 14 7 500 540 561 9 18 9 8 16 8 500 540 561 10 20 10 9 18 9 500 540 561 11 22 11 10 20 10 500 540 561 12 24 12 11 22 11 500 540 561 13 26 13 12 24 12 500 540 561 14 28 14 13 26 13 500 540 561 15 30 15 14 28 14 500 540 561 16 32 16 15 30 15 500 540 561 17 34 17 16 32 16 500 540 561 18 36 18 17 34 17 500 540 561 19 38 19 18 36 18 500 540 561 0 0 0 19 38 19 500 540 561 480 521 559 481 520 558 501 541 562 481 520 558 482 522 557 501 541 562 482 522 557 483 523 556 501 541 562 483 523 556 484 524 555 501 541 562 484 524 555 485 525 554 501 541 562 485 525 554 486 526 553 501 541 562 486 526 553 487 527 552 501 541 562 487 527 552 488 528 551 501 541 562 488 528 551 489 529 550 501 541 562 489 529 550 490 530 549 501 541 562 490 530 549 491 531 548 501 541 562 491 531 548 492 532 547 501 541 562 492 532 547 493 533 546 501 541 562 493 533 546 494 534 545 501 541 562 494 534 545 495 535 544 501 541 562 495 535 544 496 536 543 501 541 562 496 536 543 497 537 542 501 541 562 497 537 542 498 538 541 501 541 562 498 538 541 499 539 560 501 541 562 499 539 560 480 521 559 501 541 562</p>
        </triangles>
      </mesh>
      <extra>
        <technique profile="MAYA">
          <double_sided>1</double_sided>
        </technique>
      </extra>
    </geometry>
  </library_geometries>
  <library_controllers>
    <controller id="pCylinderShape1-lib-skin" name="skinCluster1">
      <skin source="#pCylinderShape1-lib">
        <bind_shape_matrix>1 0 0 0 0 1 0 0 0 0 1 0 0 0 0 1</bind_shape_matrix>
        <source id="pCylinderShape1-lib-skin-joints">
          <Name_array id="pCylinderShape1-lib-skin-joints-array" count="2">joint1 joint2</Name_array>
          <technique_common>
            <accessor source="#pCylinderShape1-lib-skin-joints-array" count="2" stride="1">
              <param name="JOINT" type="Name"/>
            </accessor>
          </technique_common>
        </source>
        <source id="pCylinderShape1-lib-skin-bind_poses">
          <float_array id="pCylinderShape1-lib-skin-bind_poses-array" count="32">-0.274721 0.961524 0 0.989628 0.961524 0.274721 0 0.138837 0 0 -1 0 0 0 0 1 0.383277 0.923634 0 -0.030374 -0.923634 0.383277 0 -0.201504 0 0 1 0 0 0 0 1</float_array>
          <technique_common>
            <accessor source="#pCylinderShape1-lib-skin-bind_poses-array" count="2" stride="16">
              <param name="TRANSFORM" type="float4x4"/>
            </accessor>
          </technique_common>
        </source>
        <source id="pCylinderShape1-lib-skin-weights">
          <float_array id="pCylinderShape1-lib-skin-weights-array" count="995">1 0.999819 0.000181 0.999495 0.000505 0.998946 0.001054 0.998197 0.001803 0.997352 0.002648 0.996567 0.003433 0.99601 0.00399 0.995809 0.004191 0.99601 0.00399 0.996567 0.003433 0.997352 0.002648 0.998197 0.001803 0.998946 0.001054 0.999495 0.000505 0.999819 0.000181 0.99953 0.00047 0.999086 0.000914 0.998072 0.001928 0.996186 0.003814 0.993308 0.006692 0.989646 0.010354 0.985685 0.014315 0.982109 0.017891 0.979615 0.020385 0.97872 0.02128 0.979615 0.020385 0.982109 0.017891 0.985685 0.014315 0.989646 0.010354 0.993308 0.006692 0.996186 0.003814 0.998072 0.001928 0.999086 0.000914 0.99953 0.00047 0.999647 0.000353 0.995661 0.004339 0.99392 0.00608 0.990504 0.009496 0.984845 0.015155 0.976737 0.023263 0.96702 0.03298 0.956969 0.043031 0.94818 0.05182 0.942181 0.057819 0.940052 0.059948 0.942181 0.057819 0.94818 0.05182 0.956969 0.043031 0.96702 0.03298 0.976737 0.023263 0.984845 0.015155 0.990504 0.009496 0.99392 0.00608 0.995661 0.004339 0.996184 0.003816 0.99338 0.00662 0.990946 0.009054 0.986423 0.013577 0.979491 0.020509 0.970267 0.029733 0.959518 0.040482 0.9486 0.051401 0.939169 0.060831 0.93278 0.06722 0.93052 0.06948 0.93278 0.06722 0.939169 0.060831 0.9486 0.0514 0.959518 0.040482 0.970268 0.029732 0.979491 0.020509 0.986423 0.013577 0.990946 0.009054 0.99338 0.00662 0.994133 0.005867 0.988225 0.011775 0.985095 0.014905 0.979529 0.020471 0.971359 0.028641 0.960877 0.039123 0.949 0.051 0.937186 0.062814 0.927132 0.072868 0.920385 0.079615 0.91801 0.08199 0.920385 0.079615 0.927132 0.072868 0.937186 0.062814 0.949 0.051 0.960877 0.039123 0.971359 0.028641 0.979529 0.020471 0.985095 0.014905 0.988225 0.011775 0.989221 0.010779 0.979227 0.020773 0.975258 0.024742 0.968455 0.031545 0.958862 0.041138 0.946993 0.053007 0.933949 0.066051 0.921284 0.078716 0.910699 0.089301 0.903681 0.096319 0.901226 0.098774 0.903681 0.096319 0.910699 0.089301 0.921284 0.078716 0.933949 0.066051 0.946993 0.053007 0.958862 0.041138 0.968455 0.031545 0.975258 0.024742 0.979227 0.020773 0.980521 0.019479 0.963791 0.036209 0.958854 0.041146 0.950655 0.049345 0.939507 0.060493 0.926203 0.073797 0.912053 0.087947 0.898698 0.101302 0.887789 0.112211 0.880675 0.119325 0.878208 0.121792 0.880675 0.119325 0.887789 0.112211 0.898698 0.101302 0.912053 0.087947 0.926203 0.073797 0.939507 0.060493 0.950655 0.049345 0.958854 0.041146 0.963791 0.036209 0.96543 0.03457 0.938093 0.061907 0.932111 0.067889 0.922434 0.077566 0.909702 0.090298 0.895034 0.104966 0.87997 0.12003 0.86622 0.13378 0.855326 0.144674 0.848395 0.151605 0.846024 0.153976 0.848395 0.151605 0.855327 0.144673 0.86622 0.13378 0.87997 0.12003 0.895034 0.104966 0.909702 0.090298 0.922434 0.077566 0.932111 0.067889 0.938093 0.061907 0.940109 0.059891 0.897444 0.102556 0.890419 0.10958 0.879299 0.120701 0.865074 0.134926 0.849207 0.150793 0.833478 0.166522 0.819663 0.180337 0.809154 0.190846 0.802718 0.197282 0.80057 0.19943 0.802718 0.197282 0.809154 0.190846 0.819664 0.180336 0.833479 0.166521 0.849207 0.150793 0.865074 0.134926 0.879299 0.120701 0.89042 0.10958 0.897444 0.102556 0.89984 0.10016 0.838174 0.161826 0.830217 0.169783 0.817811 0.182189 0.802262 0.197738 0.785327 0.214673 0.768994 0.231006 0.755118 0.244882 0.745 0.255 0.739097 0.260903 0.7372 0.2628 0.739097 0.260903 0.745 0.255 0.755118 0.244882 0.768994 0.231006 0.785327 0.214673 0.802262 0.197738 0.817811 0.182189 0.830217 0.169783 0.838175 0.161825 0.840911 0.159089 0.761419 0.238581 0.75279 0.24721 0.739442 0.260558 0.722857 0.277143 0.704928 0.295072 0.687713 0.312287 0.673112 0.326888 0.662486 0.337514 0.656335 0.343665 0.654378 0.345622 0.656335 0.343665 0.662486 0.337514 0.673112 0.326888 0.687713 0.312287 0.704928 0.295072 0.722858 0.277142 0.739442 0.260558 0.752791 0.247209 0.761419 0.238581 0.7644 0.2356 0.674441 0.325559 0.667207 0.332793 0.654053 0.345947 0.637271 0.362729 0.619036 0.380964 0.60125 0.39875 0.585662 0.414338 0.573679 0.426321 0.566224 0.433776 0.563711 0.436289 0.566224 0.433776 0.573679 0.426321 0.585662 0.414338 0.60125 0.39875 0.619036 0.380964 0.637271 0.362729 0.654053 0.345947 0.667207 0.332793 0.674441 0.325559 0.676707 0.323293 0.575105 0.424895 0.573865 0.426135 0.570256 0.429744 0.561885 0.438115 0.546827 0.453173 0.531635 0.468365 0.518864 0.481136 0.509758 0.490242 0.504768 0.495232 0.503302 0.496698 0.504768 0.495232 0.509758 0.490242 0.518864 0.481136 0.531635 0.468365 0.546827 0.453173 0.561885 0.438115 0.570256 0.429744 0.573865 0.426135 0.575105 0.424895 0.575364 0.424636 0.46788 0.53212 0.473807 0.526193 0.482124 0.517876 0.490872 0.509128 0.497793 0.502207 0.500377 0.499623 0.5 0.5 0.5 0.5 0.5 0.5 0.5 0.5 0.5 0.5 0.5 0.5 0.5 0.5 0.500377 0.499623 0.497793 0.502207 0.490872 0.509128 0.482124 0.517876 0.473807 0.526193 0.46788 0.53212 0.465735 0.534265 0.361705 0.638295 0.374641 0.625359 0.394919 0.605081 0.42123 0.57877 0.449259 0.550741 0.47371 0.52629 0.491097 0.508903 0.499238 0.500762 0.5 0.5 0.5 0.5 0.5 0.5 0.499238 0.500762 0.491097 0.508903 0.47371 0.52629 0.449259 0.550741 0.42123 0.57877 0.394919 0.605081 0.37464 0.62536 0.361705 0.638295 0.357244 0.642756 0.2651 0.7349 0.282443 0.717557 0.309185 0.690815 0.342173 0.657827 0.377463 0.622537 0.411031 0.588969 0.439466 0.560534 0.460427 0.539573 0.472874 0.527126 0.476923 0.523077 0.472874 0.527126 0.460427 0.539573 0.439466 0.560534 0.411031 0.588969 0.377463 0.622537 0.342173 0.657827 0.309185 0.690815 0.282443 0.717557 0.2651 0.7349 0.259104 0.740896 0.176752 0.823248 0.19394 0.80606 0.221108 0.778892 0.255663 0.744337 0.293858 0.706142 0.331429 0.668571 0.364435 0.635565 0.38986 0.61014 0.405772 0.594228 0.411175 0.588825 0.405772 0.594228 0.38986 0.610141 0.364435 0.635565 0.331429 0.668571 0.293858 0.706142 0.255663 0.744337 0.221108 0.778892 0.19394 0.80606 0.176752 0.823248 0.170893 0.829107 0.105938 0.894062 0.121222 0.878778 0.146165 0.853835 0.179103 0.820897 0.216868 0.783132 0.255212 0.744788 0.289757 0.710243 0.316869 0.683132 0.334049 0.665951 0.33992 0.66008 0.334049 0.665951 0.316868 0.683132 0.289757 0.710243 0.255211 0.744789 0.216868 0.783132 0.179102 0.820898 0.146165 0.853835 0.121222 0.878778 0.105938 0.894062 0.100824 0.899176 0.058197 0.941804 0.070671 0.929329 0.091889 0.908111 0.121243 0.878757 0.156401 0.843599 0.193428 0.806572 0.227743 0.772257 0.255217 0.744783 0.272849 0.727151 0.278911 0.721089 0.272849 0.727151 0.255217 0.744783 0.227743 0.772257 0.193428 0.806572 0.156401 0.843599 0.121243 0.878757 0.091889 0.908111 0.070671 0.929329 0.058196 0.941804 0.054126 0.945874 0.029951 0.970049 0.039523 0.960477 0.056676 0.943324 0.081741 0.918259 0.113243 0.886757 0.147727 0.852273 0.180621 0.819379 0.207493 0.792507 0.224955 0.775045 0.230994 0.769006 0.224955 0.775045 0.207493 0.792507 0.180621 0.819379 0.147727 0.852273 0.113243 0.886757 0.081741 0.918259 0.056676 0.943324 0.039523 0.960477 0.029951 0.970049 0.026931 0.973069 0.014689 0.985311 0.02174 0.97826 0.035223 0.964777 0.056167 0.943833 0.08383 0.91617 0.115265 0.884735 0.146069 0.853931 0.171698 0.828302 0.18854 0.81146 0.194395 0.805605 0.18854 0.81146 0.171698 0.828302 0.146069 0.853931 0.115265 0.884735 0.08383 0.91617 0.056167 0.943833 0.035223 0.964777 0.02174 0.97826 0.014689 0.985311 0.012564 0.987436 0.006951 0.993049 0.012008 0.987992 0.022502 0.977498 0.039914 0.960086 0.064048 0.935952 0.092422 0.907578 0.120891 0.879109 0.144952 0.855048 0.160916 0.839084 0.166491 0.833509 0.160916 0.839084 0.144952 0.855048 0.120891 0.879109 0.092422 0.907578 0.064047 0.935953 0.039914 0.960086 0.022502 0.977498 0.012008 0.987992 0.006951 0.993049 0.005548 0.994452 0.004219 0.995781 0.007628 0.992372 0.015297 0.984703 0.029555 0.970445 0.050663 0.949337 0.076223 0.923777 0.10238 0.89762 0.124778 0.875222 0.139757 0.860243 0.145009 0.854991 0.139757 0.860243 0.124778 0.875222 0.10238 0.89762 0.076223 0.923777 0.050663 0.949337 0.029555 0.970445 0.015296 0.984703 0.007628 0.992372 0.004219 0.995781 0.003296 0.996704 0.000394 0.999606 0.001225 0.998775 0.003525 0.996475 0.008362 0.991638 0.01655 0.98345 0.027476 0.972524 0.039438 0.960562 0.050239 0.949761 0.057738 0.942262 0.060418 0.939582 0.057738 0.942262 0.050239 0.949761 0.039438 0.960562 0.027476 0.972524 0.01655 0.98345 0.008362 0.991638 0.003525 0.996475 0.001225 0.998775 0.000394 0.999606 0.000217 0.999783 0.002014 0.997986 0.002622 0.997378 0.003746 0.996254 0.00548 0.99452 0.007838 0.992162 0.01068 0.98932 0.013682 0.986318 0.016373 0.983627 0.018251 0.981749 0.018926 0.981074 0.018251 0.981749 0.016373 0.983627 0.013682 0.986318 0.01068 0.98932 0.007838 0.992162 0.00548 0.99452 0.003746 0.996254 0.002622 0.997378 0.002014 0.997986 0.001824 0.998176 0.999783 0.000217 0.00933 0.99067</float_array>
          <technique_common>
            <accessor source="#pCylinderShape1-lib-skin-weights-array" count="995" stride="1">
              <param name="WEIGHT" type="float"/>
            </accessor>
          </technique_common>
        </source>
        <joints>
          <input semantic="JOINT" source="#pCylinderShape1-lib-skin-joints"/>
          <input semantic="INV_BIND_MATRIX" source="#pCylinderShape1-lib-skin-bind_poses"/>
        </joints>
        <vertex_weights count="502">
          <input semantic="JOINT" source="#pCylinderShape1-lib-skin-joints" offset="0"/>
          <input semantic="WEIGHT" source="#pCylinderShape1-lib-skin-weights" offset="1"/>
          <vcount>1 1 2 2 2 2 2 2 2 2 2 2 2 2 2 2 2 1 1 1 2 2 2 2 2 2 2 2 2 2 2 2 2 2 2 2 2 2 2 2 2 2 2 2 2 2 2 2 2 2 2 2 2 2 2 2 2 2 2 2 2 2 2 2 2 2 2 2 2 2 2 2 2 2 2 2 2 2 2 2 2 2 2 2 2 2 2 2 2 2 2 2 2 2 2 2 2 2 2 2 2 2 2 2 2 2 2 2 2 2 2 2 2 2 2 2 2 2 2 2 2 2 2 2 2 2 2 2 2 2 2 2 2 2 2 2 2 2 2 2 2 2 2 2 2 2 2 2 2 2 2 2 2 2 2 2 2 2 2 2 2 2 2 2 2 2 2 2 2 2 2 2 2 2 2 2 2 2 2 2 2 2 2 2 2 2 2 2 2 2 2 2 2 2 2 2 2 2 2 2 2 2 2 2 2 2 2 2 2 2 2 2 2 2 2 2 2 2 2 2 2 2 2 2 2 2 2 2 2 2 2 2 2 2 2 2 2 2 2 2 2 2 2 2 2 2 2 2 2 2 2 2 2 2 2 2 2 2 2 2 2 2 2 2 2 2 2 2 2 2 2 2 2 2 2 2 2 2 2 2 2 2 2 2 2 2 2 2 2 2 2 2 2 2 2 2 2 2 2 2 2 2 2 2 2 2 2 2 2 2 2 2 2 2 2 2 2 2 2 2 2 2 2 2 2 2 2 2 2 2 2 2 2 2 2 2 2 2 2 2 2 2 2 2 2 2 2 2 2 2 2 2 2 2 2 2 2 2 2 2 2 2 2 2 2 2 2 2 2 2 2 2 2 2 2 2 2 2 2 2 2 2 2 2 2 2 2 2 2 2 2 2 2 2 2 2 2 2 2 2 2 2 2 2 2 2 2 2 2 2 2 2 2 2 2 2 2 2 2 2 2 2 2 2 2 2 2 2 2 2 2 2 2 2 2 2 2 2 2 2 2 2 2 2 2 2 2 2 2 2 2 2 2 2 2 2 2 2 2 2 2 2 2 2 2 2 2 2 2 2 2 2 2 2 2 2 2 2 2 2 2 2 2 2 2 2 2 2 2 2 2 2 2 2 2 2 2 2 2 2 2 2 </vcount>
          <v>0 0 0 0 0 1 1 2 0 3 1 4 0 5 1 6 0 7 1 8 0 9 1 10 0 11 1 12 0 13 1 14 0 15 1 16 0 17 1 18 0 19 1 20 0 21 1 22 0 23 1 24 0 25 1 26 0 27 1 28 0 29 1 30 0 0 0 0 0 0 0 31 1 32 0 33 1 34 0 35 1 36 0 37 1 38 0 39 1 40 0 41 1 42 0 43 1 44 0 45 1 46 0 47 1 48 0 49 1 50 0 51 1 52 0 53 1 54 0 55 1 56 0 57 1 58 0 59 1 60 0 61 1 62 0 63 1 64 0 65 1 66 0 67 1 68 0 69 1 70 0 71 1 72 0 73 1 74 0 75 1 76 0 77 1 78 0 79 1 80 0 81 1 82 0 83 1 84 0 85 1 86 0 87 1 88 0 89 1 90 0 91 1 92 0 93 1 94 0 95 1 96 0 97 1 98 0 99 1 100 0 101 1 102 0 103 1 104 0 105 1 106 0 107 1 108 0 109 1 110 0 111 1 112 0 113 1 114 0 115 1 116 0 117 1 118 0 119 1 120 0 121 1 122 0 123 1 124 0 125 1 126 0 127 1 128 0 129 1 130 0 131 1 132 0 133 1 134 0 135 1 136 0 137 1 138 0 139 1 140 0 141 1 142 0 143 1 144 0 145 1 146 0 147 1 148 0 149 1 150 0 151 1 152 0 153 1 154 0 155 1 156 0 157 1 158 0 159 1 160 0 161 1 162 0 163 1 164 0 165 1 166 0 167 1 168 0 169 1 170 0 171 1 172 0 173 1 174 0 175 1 176 0 177 1 178 0 179 1 180 0 181 1 182 0 183 1 184 0 185 1 186 0 187 1 188 0 189 1 190 0 191 1 192 0 193 1 194 0 195 1 196 0 197 1 198 0 199 1 200 0 201 1 202 0 203 1 204 0 205 1 206 0 207 1 208 0 209 1 210 0 211 1 212 0 213 1 214 0 215 1 216 0 217 1 218 0 219 1 220 0 221 1 222 0 223 1 224 0 225 1 226 0 227 1 228 0 229 1 230 0 231 1 232 0 233 1 234 0 235 1 236 0 237 1 238 0 239 1 240 0 241 1 242 0 243 1 244 0 245 1 246 0 247 1 248 0 249 1 250 0 251 1 252 0 253 1 254 0 255 1 256 0 257 1 258 0 259 1 260 0 261 1 262 0 263 1 264 0 265 1 266 0 267 1 268 0 269 1 270 0 271 1 272 0 273 1 274 0 275 1 276 0 277 1 278 0 279 1 280 0 281 1 282 0 283 1 284 0 285 1 286 0 287 1 288 0 289 1 290 0 291 1 292 0 293 1 294 0 295 1 296 0 297 1 298 0 299 1 300 0 301 1 302 0 303 1 304 0 305 1 306 0 307 1 308 0 309 1 310 0 311 1 312 0 313 1 314 0 315 1 316 0 317 1 318 0 319 1 320 0 321 1 322 0 323 1 324 0 325 1 326 0 327 1 328 0 329 1 330 0 331 1 332 0 333 1 334 0 335 1 336 0 337 1 338 0 339 1 340 0 341 1 342 0 343 1 344 0 345 1 346 0 347 1 348 0 349 1 350 0 351 1 352 0 353 1 354 0 355 1 356 0 357 1 358 0 359 1 360 0 361 1 362 0 363 1 364 0 365 1 366 0 367 1 368 0 369 1 370 0 371 1 372 0 373 1 374 0 375 1 376 0 377 1 378 0 379 1 380 0 381 1 382 0 383 1 384 0 385 1 386 0 387 1 388 0 389 1 390 0 391 1 392 0 393 1 394 0 395 1 396 0 397 1 398 0 399 1 400 0 401 1 402 0 403 1 404 0 405 1 406 0 407 1 408 0 409 1 410 0 411 1 412 0 413 1 414 0 415 1 416 0 417 1 418 0 419 1 420 0 421 1 422 0 423 1 424 0 425 1 426 0 427 1 428 0 429 1 430 0 431 1 432 0 433 1 434 0 435 1 436 0 437 1 438 0 439 1 440 0 441 1 442 0 443 1 444 0 445 1 446 0 447 1 448 0 449 1 450 0 451 1 452 0 453 1 454 0 455 1 456 0 457 1 458 0 459 1 460 0 461 1 462 0 463 1 464 0 465 1 466 0 467 1 468 0 469 1 470 0 471 1 472 0 473 1 474 0 475 1 476 0 477 1 478 0 479 1 480 0 481 1 482 0 483 1 484 0 485 1 486 0 487 1 488 0 489 1 490 0 491 1 492 0 493 1 494 0 495 1 496 0 497 1 498 0 499 1 500 0 501 1 502 0 503 1 504 0 505 1 506 0 507 1 508 0 509 1 510 0 511 1 512 0 513 1 514 0 515 1 516 0 517 1 518 0 519 1 520 0 521 1 522 0 523 1 524 0 525 1 526 0 527 1 528 0 529 1 530 0 531 1 532 0 533 1 534 0 535 1 536 0 537 1 538 0 539 1 540 0 541 1 542 0 543 1 544 0 545 1 546 0 547 1 548 0 549 1 550 0 551 1 552 0 553 1 554 0 555 1 556 0 557 1 558 0 559 1 560 0 561 1 562 0 563 1 564 0 565 1 566 0 567 1 568 0 569 1 570 0 571 1 572 0 573 1 574 0 575 1 576 0 577 1 578 0 579 1 580 0 581 1 582 0 583 1 584 0 585 1 586 0 587 1 588 0 589 1 590 0 591 1 592 0 593 1 594 0 595 1 596 0 597 1 598 0 599 1 600 0 601 1 602 0 603 1 604 0 605 1 606 0 607 1 608 0 609 1 610 0 611 1 612 0 613 1 614 0 615 1 616 0 617 1 618 0 619 1 620 0 621 1 622 0 623 1 624 0 625 1 626 0 627 1 628 0 629 1 630 0 631 1 632 0 633 1 634 0 635 1 636 0 637 1 638 0 639 1 640 0 641 1 642 0 643 1 644 0 645 1 646 0 647 1 648 0 649 1 650 0 651 1 652 0 653 1 654 0 655 1 656 0 657 1 658 0 659 1 660 0 661 1 662 0 663 1 664 0 665 1 666 0 667 1 668 0 669 1 670 0 671 1 672 0 673 1 674 0 675 1 676 0 677 1 678 0 679 1 680 0 681 1 682 0 683 1 684 0 685 1 686 0 687 1 688 0 689 1 690 0 691 1 692 0 693 1 694 0 695 1 696 0 697 1 698 0 699 1 700 0 701 1 702 0 703 1 704 0 705 1 706 0 707 1 708 0 709 1 710 0 711 1 712 0 713 1 714 0 715 1 716 0 717 1 718 0 719 1 720 0 721 1 722 0 723 1 724 0 725 1 726 0 727 1 728 0 729 1 730 0 731 1 732 0 733 1 734 0 735 1 736 0 737 1 738 0 739 1 740 0 741 1 742 0 743 1 744 0 745 1 746 0 747 1 748 0 749 1 750 0 751 1 752 0 753 1 754 0 755 1 756 0 757 1 758 0 759 1 760 0 761 1 762 0 763 1 764 0 765 1 766 0 767 1 768 0 769 1 770 0 771 1 772 0 773 1 774 0 775 1 776 0 777 1 778 0 779 1 780 0 781 1 782 0 783 1 784 0 785 1 786 0 787 1 788 0 789 1 790 0 791 1 792 0 793 1 794 0 795 1 796 0 797 1 798 0 799 1 800 0 801 1 802 0 803 1 804 0 805 1 806 0 807 1 808 0 809 1 810 0 811 1 812 0 813 1 814 0 815 1 816 0 817 1 818 0 819 1 820 0 821 1 822 0 823 1 824 0 825 1 826 0 827 1 828 0 829 1 830 0 831 1 832 0 833 1 834 0 835 1 836 0 837 1 838 0 839 1 840 0 841 1 842 0 843 1 844 0 845 1 846 0 847 1 848 0 849 1 850 0 851 1 852 0 853 1 854 0 855 1 856 0 857 1 858 0 859 1 860 0 861 1 862 0 863 1 864 0 865 1 866 0 867 1 868 0 869 1 870 0 871 1 872 0 873 1 874 0 875 1 876 0 877 1 878 0 879 1 880 0 881 1 882 0 883 1 884 0 885 1 886 0 887 1 888 0 889 1 890 0 891 1 892 0 893 1 894 0 895 1 896 0 897 1 898 0 899 1 900 0 901 1 902 0 903 1 904 0 905 1 906 0 907 1 908 0 909 1 910 0 911 1 912 0 913 1 914 0 915 1 916 0 917 1 918 0 919 1 920 0 921 1 922 0 923 1 924 0 925 1 926 0 927 1 928 0 929 1 930 0 931 1 932 0 933 1 934 0 935 1 936 0 937 1 938 0 939 1 940 0 941 1 942 0 943 1 944 0 945 1 946 0 947 1 948 0 949 1 950 0 951 1 952 0 953 1 954 0 955 1 956 0 957 1 958 0 959 1 960 0 961 1 962 0 963 1 964 0 965 1 966 0 967 1 968 0 969 1 970 0 971 1 972 0 973 1 974 0 975 1 976 0 977 1 978 0 979 1 980 0 981 1 982 0 983 1 984 0 985 1 986 0 987 1 988 0 989 1 990 0 991 1 992 0 993 1 994</v>
        </vertex_weights>
      </skin>
    </controller>
  </library_controllers>
  <library_visual_scenes>
    <visual_scene id="VisualSceneNode" name="skincyl_atg">
      <node id="pCylinder1" name="pCylinder1" type="NODE">
        <matrix sid="transform">1 0 0 0 0 1 0 0 0 0 1 0 0 0 0 1</matrix>
      </node>
      <node id="pCylinderShape1" name="pCylinderShape1" type="NODE">
        <matrix sid="transform">1 0 0 0 0 1 0 0 0 0 1 0 0 0 0 1</matrix>
        <instance_controller url="#pCylinderShape1-lib-skin">
          <skeleton>joint1</skeleton>
          <bind_material>
            <technique_common>
              <instance_material symbol="ATGMaterial1SG" target="#ATGMaterial1"/>
            </technique_common>
          </bind_material>
        </instance_controller>
      </node>
      <node id="joint1" name="joint1" sid="joint1" type="JOINT">
        <matrix sid="transform">-0.274721 0.961524 0 0.138376 0.961524 0.274721 0 -0.989692 0 0 -1 0 0 0 0 1</matrix>
        <node id="joint2" name="joint2" sid="joint2" type="JOINT">
          <matrix sid="transform">0.782802 0.622271 0 1.1388 0.622271 -0.782802 0 0 0 0 -1 0 0 0 0 1</matrix>
          <node id="joint3" name="joint3" sid="joint3" type="JOINT">
            <matrix sid="transform">0.383277 0.923634 0 0.957529 -0.923634 0.383277 0 0 0 0 1 0 0 0 0 1</matrix>
          </node>
        </node>
      </node>
      <node id="softMod1Handle" name="softMod1Handle" type="NODE">
        <matrix sid="transform">1 0 0 0 0 1 0 -0.159125 0 0 1 0 0 0 0 1</matrix>
      </node>
      <node id="pointLight1" name="pointLight1" type="NODE">
        <matrix sid="transform">1 0 0 1.12206 0 1 0 1.30833 0 0 1 1.15025 0 0 0 1</matrix>
        <instance_light url="#pointLightShape1-lib"/>
      </node>
    </visual_scene>
  </library_visual_scenes>
  <scene>
    <instance_physics_scene url="#MayaNativePhysicsScene"/>
    <instance_visual_scene url="#VisualSceneNode"/>
  </scene>
</COLLADA>
